<?xml version="1.0" encoding="UTF-8" standalone="no"?>
<!-- Created with Inkscape (http://www.inkscape.org/) -->

<svg
   xmlns:dc="http://purl.org/dc/elements/1.1/"
   xmlns:cc="http://creativecommons.org/ns#"
   xmlns:rdf="http://www.w3.org/1999/02/22-rdf-syntax-ns#"
   xmlns:svg="http://www.w3.org/2000/svg"
   xmlns="http://www.w3.org/2000/svg"
   xmlns:sodipodi="http://sodipodi.sourceforge.net/DTD/sodipodi-0.dtd"
   xmlns:inkscape="http://www.inkscape.org/namespaces/inkscape"
   width="1.9034766in"
   height="1.9026085in"
   viewBox="0 0 171.31289 171.23477"
   id="svg2"
   version="1.1"
   inkscape:version="0.91 r13725"
   sodipodi:docname="news.svg">
  <defs
     id="defs4" />
  <sodipodi:namedview
     id="base"
     pagecolor="#ffffff"
     bordercolor="#666666"
     borderopacity="1.0"
     inkscape:pageopacity="0.0"
     inkscape:pageshadow="2"
     inkscape:zoom="1.979899"
     inkscape:cx="-39.736535"
     inkscape:cy="60.173795"
     inkscape:document-units="px"
     inkscape:current-layer="layer1"
     showgrid="false"
     showguides="false"
     inkscape:snap-bbox="true"
     inkscape:bbox-paths="false"
     inkscape:bbox-nodes="true"
     inkscape:snap-bbox-midpoints="true"
     fit-margin-top="0"
     fit-margin-left="0"
     fit-margin-right="0"
     fit-margin-bottom="0"
     inkscape:window-width="1920"
     inkscape:window-height="1058"
     inkscape:window-x="-8"
     inkscape:window-y="-8"
     inkscape:window-maximized="1"
     units="in">
    <sodipodi:guide
       position="-320.41984,-403.84916"
       orientation="1,0"
       id="guide4140" />
  </sodipodi:namedview>
  <metadata
     id="metadata7">
    <rdf:RDF>
      <cc:Work
         rdf:about="">
        <dc:format>image/svg+xml</dc:format>
        <dc:type
           rdf:resource="http://purl.org/dc/dcmitype/StillImage" />
        <dc:title />
      </cc:Work>
    </rdf:RDF>
  </metadata>
  <g
     inkscape:label="Layer 1"
     inkscape:groupmode="layer"
     id="layer1"
     transform="translate(-280.51884,512.16616)">
    <path
       style="fill:#000000;fill-opacity:1;fill-rule:nonzero;stroke:none;stroke-width:0.6;stroke-linecap:round;stroke-linejoin:round;stroke-miterlimit:4;stroke-dasharray:none;stroke-opacity:1"
       d="m 28.710938,-9.8164062 c -0.052,0.090091 -0.105969,0.179257 -0.138672,0.2773437 -0.0376,0.11294 0.0532,0.2509419 0,0.3574219 -0.15059,0.30117 -0.608364,0.3954037 -0.714844,0.7148437 -0.0753,0.22588 0.0753,0.4870206 0,0.7128907 -0.04695,0.14087 -1.242928,1.2429276 -1.429688,1.4296874 -0.11905,0.1190401 -0.204888,0.2821219 -0.355468,0.3574219 -0.10648,0.0532 -0.273222,-0.0842 -0.357422,0 -0.0842,0.08418 0.0842,0.2712688 0,0.3554688 -0.08418,0.0842 -0.238372,0 -0.357422,0 l -0.357422,0 -2.857422,0 c -0.18676,0 -1.333834,-0.0469 -1.427734,0 -1.48635,0.74319 0.381518,-0.024096 -0.357422,0.7148437 -0.08418,0.0842 -0.273222,-0.0842 -0.357422,0 -0.0842,0.08418 0.0532,0.2509419 0,0.3574219 -0.07529,0.15059 -0.282122,0.2068419 -0.357422,0.3574219 -0.0532,0.10648 0.0842,0.2732218 0,0.3574218 -0.08418,0.0842 -0.273222,-0.0842 -0.357422,0 -0.73894,0.7389801 1.128918,-0.030279 -0.357422,0.7128907 -0.10648,0.0532 -0.248988,-0.0532 -0.355468,0 -0.15059,0.07529 -0.206842,0.2821217 -0.357422,0.3574219 -0.10648,0.0532 -0.273222,-0.0842 -0.357422,0 -0.0842,0.08418 0.0842,0.2732218 0,0.3574218 -0.08418,0.0842 -0.250942,-0.0532 -0.357422,0 -0.15058,0.07529 -0.206842,0.2821219 -0.357422,0.3574219 -0.21296,0.10648 -0.546484,-0.16836 -0.714844,0 -0.0842,0.08418 0.0842,0.2732219 0,0.3574219 -0.08418,0.0842 -0.271268,-0.0842 -0.355468,0 -0.0977,0.09773 0.0969,1.23399435 0,1.42773435 -0.07529,0.15059 -0.282122,0.20683188 -0.357422,0.35742187 -0.0532,0.10648002 0.0842,0.27322188 0,0.35742188 -0.08418,0.0842 -0.273222,-0.0842 -0.357422,0 -0.0842,0.08418 0.0842,0.27322187 0,0.35742188 -0.08418,0.0842 -0.273222,-0.0842 -0.357422,0 -0.0842,0.08418 0.0842,0.27322192 0,0.35742182 -0.08418,0.0842 -0.238372,0 -0.357422,0 l -1.785156,0 -0.357422,0 c -0.11905,0 -0.273222,-0.0842 -0.357422,0 -0.244079,0.2440748 -0.06942,0.3450995 0.08398,0.3828126 -0.07447,-0.00685 -0.28571,-0.010959 -0.457031,-0.015625 -0.04479,0.0899 -0.454563,-0.00977 -0.341797,-0.00977 l -0.355468,0 c -1.1496308,0 0.609126,0.083898 -0.714844,-0.3574219 C 10.233521,1.1344755 10.101311,1.1363978 9.96875,1.1484375 9.9829014,1.1528294 10,1.1550213 10,1.1757812 c 0,0.11904 -0.4764719,0 -0.3574219,0 -0.47619,-0.4761899 0.5949579,-0.35742183 -0.3574219,-0.35742182 -0.0842,-0.08418 0.0842,-0.27322188 0,-0.35742188 -0.1683498,-0.16836 -0.5445306,0.16836 -0.7128906,0 -0.0842,-0.08418 0.0842,-0.27322187 0,-0.35742188 -0.08418,-0.08419999 -0.250942,0.0532 -0.3574218,0 -0.1505901,-0.07528999 -0.2068319,-0.28212187 -0.3574219,-0.35742187 -0.10648,-0.0532 -0.2732219,0.0842 -0.3574219,0 -0.0842,-0.08417 0,-0.23837187 0,-0.35742187 0,-0.60762998 -0.1321681,-1.29556628 0.3574219,-1.78515628 0.08418,-0.0842 0.2732218,0.0842 0.3574219,0 0.0842,-0.08418 -0.0377,-0.2444819 0,-0.3574218 0.08418,-0.2525301 0.1691918,-0.5246607 0.3574218,-0.7128907 0.08418,-0.0842 0.2712688,0.0842 0.3554688,0 0.0842,-0.08418 0,-0.2383819 0,-0.3574219 l 0,-2.8574218 c 0,-0.1733361 0.033719,-1.1139854 0.00195,-1.3320313 A 85.35714,85.35714 0 0 0 -14.984375,0.9375 c 0.145564,0.2897658 0.267337,0.5212417 0.341797,0.5957031 0.73894,0.73894 -0.02835,-1.13087127 0.714844,0.3554688 0.009,0.0187 0.009,1.0535856 0,1.0722656 -0.0753,0.15059 -0.206842,0.2821319 -0.357422,0.3574219 -0.10648,0.0532 -0.273242,-0.0842 -0.357422,0 -0.0842,0.0842 0.0842,0.2732418 0,0.3574218 -0.0842,0.0842 -0.273242,-0.0842 -0.357422,0 -0.0842,0.0842 0.0532,0.2509419 0,0.3574219 -0.0474,0.0948 -0.977436,1.0228925 -1.072266,1.0703125 -0.21296,0.10648 -0.54454,-0.16836 -0.71289,0 -0.0842,0.0842 0.0842,0.2732419 0,0.3574219 -0.0842,0.0842 -0.250942,-0.0532 -0.357422,0 -0.15058,0.0753 -0.206842,0.2821319 -0.357422,0.3574219 -0.10648,0.0532 -0.250942,-0.0532 -0.357422,0 -0.15059,0.0753 -0.206832,0.2821219 -0.357422,0.3574218 -0.10647,0.0532 -0.250942,-0.0532 -0.357422,0 -0.15058,0.0753 -0.204888,0.2821319 -0.355468,0.3574219 -0.10648,0.0532 -0.250942,-0.0532 -0.357422,0 -0.30117,0.15058 -0.413674,0.5623106 -0.714844,0.7128907 -0.49263,0.2463199 -0.320004,-0.4322382 -0.714844,0.3574218 -0.0532,0.10648 0.0842,0.2732419 0,0.3574219 -0.0842,0.0842 -0.250942,-0.0532 -0.357422,0 -1.48634,0.74317 0.383472,-0.024146 -0.355468,0.7148437 -0.0842,0.0842 -0.273252,-0.0842 -0.357422,0 -0.0115,0.0115 0,0.9837024 0,1.0703126 0,0.0866 -0.0115,1.0607852 0,1.0722652 0.0842,0.0842 0.273242,-0.0842 0.357422,0 0.0842,0.0842 -0.0842,0.273242 0,0.357422 0.0842,0.0842 0.271288,-0.0842 0.355468,0 0.0842,0.0842 -0.0532,0.250942 0,0.357422 0.0753,0.15058 0.282132,0.204889 0.357422,0.355469 0.0532,0.10648 -0.0842,0.273242 0,0.357422 0.0144,0.0144 1.298528,0 1.429688,0 l 0.71289,0 c 0.06076,0 0.153216,-0.03038 0.228516,-0.04492 0.32757,-0.499166 0.912772,-1.238605 1.201172,-1.382813 -0.04209,-0.136482 -0.08418,-0.273243 0,-0.357421 0.0842,-0.0842 0.273242,0.0842 0.357422,0 0.0842,-0.0842 -0.0532,-0.250942 0,-0.357422 0.0753,-0.1505912 0.282132,-0.2068323 0.357422,-0.3574222 0.10648,-0.2129502 -0.16836,-0.5445307 0,-0.7128907 0.0842,-0.0842 0.271288,0.0842 0.355468,0 0.0842,-0.0842 -0.0842,-0.2732418 0,-0.3574219 0.0842,-0.0842 0.273242,0.0842 0.357422,0 0.16836,-0.1683598 -0.16835,-0.5464837 0,-0.7148437 0.16836,-0.16836 0.546484,0.16836 0.714844,0 0.0842,-0.0842 -0.0842,-0.2732419 0,-0.3574219 0.0842,-0.0842 0.273242,0.0842 0.357422,0 0.0842,-0.0842 -0.0842,-0.2732418 0,-0.3574218 0.0842,-0.0842 0.238372,0 0.357422,0 0,-0.16835 0.206832,-0.2821319 0.357422,-0.3574219 0.21296,-0.10648 0.49993,0.10648 0.71289,0 0.15059,-0.0753 0.206832,-0.2801788 0.357422,-0.3554688 0.10648,-0.0532 0.250942,0.0532 0.357422,0 0.15058,-0.0753 0.206842,-0.2821319 0.357422,-0.3574219 0.0304,-0.0152 1.397294,-0.0152 1.427734,0 0.7896707,0.3948302 0.111102,0.2202607 0.357422,0.7128907 0.7431703,1.48634 -0.02414,-0.3815182 0.7148439,0.3574219 0.16836,0.16836 -0.16836,0.5464837 0,0.7148437 0.0842,0.0842 0.2732418,-0.0842 0.3574219,0 0.0842,0.0842 -0.0842,0.2732419 0,0.3574219 0.0842,0.0842 0.2732418,-0.0842 0.3574218,0 0.0842,0.0842 -0.0842,0.273242 0,0.3574218 0.0842,0.0842 0.2712888,-0.0842 0.3554688,0 0.0842,0.0842 -0.0532,0.2509419 0,0.3574219 0.0753,0.15058 0.2821321,0.2048888 0.3574218,0.3554688 0.0532,0.10648 -0.0842,0.2732518 0,0.3574219 0.0842,0.0842 0.2509419,-0.0532 0.3574219,0 C -6.3710819,10.489276 -8.23894,9.7219488 -7.5,10.46094 c 0.0842,0.0842 0.2732419,-0.0842 0.3574219,0 0.0842,0.0842 0,0.238381 0,0.357421 0,0.11905 0.0532,0.250942 0,0.357422 -0.0753,0.15058 -0.2821319,0.206832 -0.3574219,0.357422 -0.0532,0.10648 0.0842,0.271289 0,0.355469 -0.0842,0.0842 -0.2509419,-0.0532 -0.3574219,0 -0.15059,0.0753 -0.2068319,0.282122 -0.3574219,0.357422 -0.1064799,0.0532 -0.2732418,-0.0842 -0.3574218,0 -0.0842,0.0842 0.0842,0.273242 0,0.357422 -0.0842,0.0842 -0.2712888,-0.0842 -0.3554688,0 -0.0842,0.0842 0,0.238371 0,0.357422 0,0.119048 -0.0842,0.273241 0,0.357421 0.0842,0.0842 0.2712888,-0.0842 0.3554688,0 0.16836,0.16836 -0.16836,0.546484 0,0.714844 0.0842,0.0842 0.273242,-0.0842 0.3574218,0 0.1683603,0.16836 -0.1683497,0.544531 0,0.712891 0.4761902,0.47618 0.3574219,-0.594958 0.3574219,0.357422 l 0,1.429687 0.3574219,0 c 0.1195996,-0.07973 0.2617883,-0.125525 0.3984375,-0.177734 -0.031871,-0.235173 -0.2621399,-0.53711 0.3164063,-0.53711 0.1190399,0 0.0842,0.273222 0,0.357422 -0.086595,0.08659 -0.1999909,0.135209 -0.3164063,0.179688 0.00907,0.06692 0.00627,0.130452 -0.041016,0.177734 -0.0842,0.0842 -0.2383719,0 -0.3574219,0 -0.14008,0.09339 -0.1890619,0.355469 -0.3574219,0.355469 -0.11905,0 0,-0.236419 0,-0.355469 l -2.1425777,0 -2.142578,0 c -0.11905,0 -0.273242,-0.0842 -0.357422,0 -0.0842,0.0842 0.0842,0.271289 0,0.355469 -0.0842,0.0842 -0.238372,0 -0.357422,0 -0.16839,0 -1.768966,-0.0162 -1.785156,0 -0.0842,0.0842 0.0842,0.273242 0,0.357422 -0.0842,0.0842 -0.238372,0 -0.357422,0 0,0.11904 0.0842,0.273242 0,0.357422 -0.0842,0.0842 -0.273242,-0.0842 -0.357422,0 -0.0842,0.0842 0.0842,0.273241 0,0.357422 -0.11059,0.11059 -1.674566,-0.110591 -1.785156,0 -0.73894,0.738939 1.128918,-0.02835 -0.357422,0.714843 -0.21296,0.10648 -0.546484,-0.16836 -0.714844,0 -0.0842,0.0842 0.0842,0.273242 0,0.357422 -0.0842,0.0842 -0.273242,-0.0842 -0.357422,0 -0.73894,0.73894 1.130872,-0.0303 -0.355468,0.712891 -0.10648,0.0532 -0.273252,-0.0842 -0.357422,0 -0.0842,0.0842 0.0842,0.273242 0,0.357422 l 0.71289,0 c 0.08929,0.02976 0.238095,0.119326 0,0.357422 -0.0842,0.0842 -0.271288,-0.0842 -0.355468,0 -0.0842,0.0842 0.0842,0.273241 0,0.357421 -0.0842,0.0842 -0.273252,-0.0842 -0.357422,0 -0.0842,0.0842 0.0842,0.273242 0,0.357422 -0.0842,0.0842 -0.250942,-0.0532 -0.357422,0 -0.15058,0.0753 -0.206842,0.282132 -0.357422,0.357422 -0.10648,0.0532 -0.273242,-0.0842 -0.357422,0 -0.0842,0.0842 0.0842,0.271289 0,0.355469 -0.16836,0.16836 -0.546484,-0.16836 -0.714844,0 -0.0842,0.0842 0.0842,0.273242 0,0.357422 -0.16836,0.16835 -0.54454,-0.16836 -0.71289,0 -0.0842,0.0842 0.0842,0.273242 0,0.357422 -0.16836,0.16836 -0.546484,-0.16836 -0.714844,0 -0.0842,0.0842 0.0842,0.273241 0,0.357422 -0.0842,0.0842 -0.273242,-0.0842 -0.357422,0 -0.0842,0.0842 0.0842,0.273241 0,0.357421 -0.0842,0.0842 -0.273242,-0.0842 -0.357422,0 -0.0344,0.0344 -0.01402,0.409111 -0.002,0.714844 l 0.002,0 c 0.06052,0 0.02828,0.09088 -0.002,0.181641 -6.8e-4,0.04839 0.009,0.173828 0.002,0.173828 -0.05852,0 -0.03119,-0.08607 -0.002,-0.173828 7.11e-4,-0.05057 0.0032,-0.09947 0,-0.181641 -0.739386,0.0011 -0.142265,0.499687 -0.355469,0.712891 -0.0842,0.0842 -0.271288,-0.0842 -0.355468,0 0.05809,0 0.03094,0.08675 0.002,0.173828 0.0288,0.0932 0.06684,0.183594 -0.002,0.183594 -0.06096,0 -0.02848,-0.0922 0.002,-0.183594 -0.02103,-0.06808 -0.03749,-0.138286 -0.002,-0.173828 -0.74317,0 -0.143982,0.501404 -0.357422,0.714844 -0.0842,0.0842 -0.273242,-0.0842 -0.357422,0 0.05762,0 0.03067,0.08359 0.002,0.169921 0.02889,0.09459 0.06784,0.1875 -0.002,0.1875 -0.06143,0 -0.02867,-0.09545 0.002,-0.1875 -0.02039,-0.06676 -0.03679,-0.135082 -0.002,-0.169921 -0.16836,0 -0.206842,0.282131 -0.357422,0.357421 -0.10648,0.0532 -0.273242,-0.0842 -0.357422,0 -0.16836,0.16836 0.16836,0.546484 0,0.714844 -0.0842,0.0842 -0.273242,-0.0842 -0.357422,0 -0.0842,0.0842 0.0842,0.271289 0,0.355469 -0.0842,0.0842 -0.273242,-0.0842 -0.357422,0 -0.0842,0.0842 0.0842,0.273242 0,0.357422 -0.0842,0.0842 -0.271288,-0.0842 -0.355468,0 -0.0115,0.0115 0,0.985655 0,1.072265 l 0,0.357422 c 0,0.11904 0.11905,0.357422 0,0.357422 l 0,0.355469 c 0,0.11905 -0.0842,0.273242 0,0.357422 0.0842,0.0842 0.271288,-0.0842 0.355468,0 0.0842,0.0842 0.11905,0.357422 0,0.357422 l 0,0.357422 c 0,0.11905 0.0842,0.273241 0,0.357421 -0.0842,0.0842 -0.271288,-0.0842 -0.355468,0 -0.0842,0.0842 0.0842,0.273242 0,0.357422 -0.0842,0.0842 -0.273252,-0.0842 -0.357422,0 -0.0842,0.0842 0.0842,0.273242 0,0.357422 -0.0842,0.0842 -0.273242,-0.0842 -0.357422,0 -0.16836,0.16836 0.16836,0.544531 0,0.712891 -0.0842,0.0842 -0.273242,-0.0842 -0.357422,0 -0.0842,0.0842 0.0532,0.250942 0,0.357422 -0.0753,0.15058 -0.282132,0.206842 -0.357422,0.357422 -0.0532,0.106479 0.0842,0.273241 0,0.357421 -0.0842,0.0842 -0.273242,-0.0842 -0.357422,0 -0.0842,0.0842 0.0532,0.250942 0,0.357422 -0.0753,0.15058 -0.282132,0.206832 -0.357422,0.357422 -0.0532,0.10648 0.0842,0.271289 0,0.355469 -0.0842,0.0842 -0.271288,-0.0842 -0.355468,0 -0.0842,0.0842 0.0532,0.250942 0,0.357422 -0.39483,0.78966 -0.222214,0.111102 -0.714844,0.357422 -0.35144,0.17572 -1.078248,1.253967 -1.429688,1.429687 -0.10648,0.0532 -0.271288,-0.0842 -0.355468,0 -0.0842,0.0842 0.0842,0.271289 0,0.355469 -0.0842,0.0842 -0.273252,-0.0842 -0.357422,0 -0.0842,0.0842 0.0842,0.273242 0,0.357422 -0.0842,0.0842 -0.273242,-0.0842 -0.357422,0 -0.16836,0.16835 0.16836,0.546484 0,0.714844 -0.0842,0.0842 -0.273242,-0.0842 -0.357422,0 -0.0144,0.0144 0,1.296584 0,1.427734 l 0,5.714844 c 0,0.0866 0.0115,1.060775 0,1.072265 -0.0842,0.0842 -0.273242,-0.0842 -0.357422,0 -0.0162,0.0162 0,1.616767 0,1.785157 0,0.168389 -0.0162,1.768966 0,1.785156 0.0842,0.0842 0.273242,-0.0842 0.357422,0 -0.16836,0 -0.206842,0.282132 -0.357422,0.357422 -0.10648,0.0532 -0.273242,-0.0842 -0.357422,0 -0.16835,0.16836 0.16836,0.546493 0,0.714843 -0.0842,0.0842 -0.273242,-0.0842 -0.357422,0 -0.0842,0.0842 0.0842,0.273242 0,0.357422 -0.95238,0 0.120722,-0.118768 -0.355468,0.357422 -0.0842,0.0842 -0.273252,-0.0842 -0.357422,0 -0.0842,0.0842 0.0532,0.248989 0,0.355469 -0.0753,0.15059 -0.282132,0.206832 -0.357422,0.357422 -0.10648,0.21295 0.16836,0.546484 0,0.714844 -0.0842,0.0842 -0.273242,-0.0842 -0.357422,0 -0.16836,0.168359 0.16836,0.546483 0,0.714843 -0.0842,0.0842 -0.273242,-0.0842 -0.357422,0 -0.16836,0.16835 0.16836,0.544531 0,0.712891 -0.0842,0.0842 -0.273242,-0.0842 -0.357422,0 -0.0842,0.0842 0,0.238372 0,0.357422 l 0,0.357422 0,1.785156 0,0.357422 c 0,0.11904 0.0532,0.250942 0,0.357422 -0.74317,1.48634 0.02609,-0.381521 -0.71289,0.357422 -0.0842,0.0842 0.0842,0.273241 0,0.357421 -0.0842,0.0842 -0.273252,-0.0842 -0.357422,0 -0.0842,0.0842 0.0532,0.250942 0,0.357422 -0.39484,0.78966 -0.222214,0.111112 -0.714844,0.357422 -0.30117,0.15058 -0.413674,0.562301 -0.714844,0.712891 -0.10869,0.0543 -0.909472,0 -1.070312,0 l -0.357422,0 c -0.11905,0 -0.273242,0.0842 -0.357422,0 -0.0842,-0.0842 0.0532,-0.250942 0,-0.357422 -0.0753,-0.15058 -0.282132,-0.204889 -0.357422,-0.355469 -0.10648,-0.21296 0.10648,-0.501884 0,-0.714844 -0.0753,-0.15058 -0.282122,-0.206831 -0.357422,-0.357421 -0.0646,-0.12915 0,-1.536757 0,-1.785157 0,-0.989 -0.357422,0.274156 -0.357422,-0.714843 l 0,-0.357422 c -0.0842,0.0842 -0.271288,-0.0842 -0.355468,0 -0.0842,0.0842 0.0842,0.273239 0,0.357422 -0.95238,0 0.118768,-0.118769 -0.357422,0.357421 -0.0842,0.0842 -0.273242,-0.0842 -0.357422,0 -0.0842,0.0842 0.0842,0.273242 0,0.357422 -0.16836,0.16836 -0.546484,-0.16836 -0.714844,0 -0.0842,0.0842 0.0842,0.273242 0,0.357422 -0.0842,0.0842 -0.273242,-0.0842 -0.357422,0 -0.0842,0.0842 0.0842,0.271289 0,0.355469 -0.73894,0.73894 0.03029,-1.128928 -0.71289,0.357422 -0.0532,0.10647 0.10648,0.304182 0,0.357422 -0.21296,0.10648 -0.488964,-0.0753 -0.714844,0 -0.21821,0.0727 -1.128678,1.229017 -1.429688,1.429687 -0.22149,0.14766 -0.4914,0.207809 -0.71289,0.355469 -0.14009,0.0934 -0.206832,0.282122 -0.357422,0.357422 -0.10648,0.0532 -0.273242,-0.0842 -0.357422,0 -0.0842,0.0842 0,0.238372 0,0.357422 -0.11905,0 -0.273242,-0.0842 -0.357422,0 -0.16836,0.16836 0.16836,0.546493 0,0.714843 -0.0842,0.0842 -0.273242,-0.0842 -0.357422,0 -0.0144,0.0144 0,1.296575 0,1.427735 0,0.0866 0.0115,1.060785 0,1.072265 -0.0842,0.0842 -0.273242,-0.0842 -0.357422,0 -0.0357,0.0357 -0.0357,1.034603 0,1.070313 0,-0.05809 0.08676,-0.03095 0.173828,-0.002 0.0932,-0.0288 0.183594,-0.06684 0.183594,0.002 0,0.06096 -0.0922,0.02848 -0.183594,-0.002 -0.06808,0.02103 -0.138286,0.0375 -0.173828,0.002 0,0.16836 0.282132,0.206832 0.357422,0.357422 0.0532,0.10647 0,0.238372 0,0.357422 l 0,0.357422 c 0.04077,0 0.03579,0.04649 0.02148,0.101562 0.02759,0.119432 0.07036,0.255859 -0.02148,0.255859 -0.07828,0 -0.006,-0.150098 0.02148,-0.255859 -0.0082,-0.03537 -0.02148,-0.07436 -0.02148,-0.101562 -0.74317,0 -0.143982,0.501403 -0.357422,0.714843 -0.0842,0.0842 -0.271288,-0.0842 -0.355468,0 -0.16836,0.16835 0.10648,0.499931 0,0.712891 -0.0753,0.15059 -0.282132,0.206832 -0.357422,0.357422 -0.10648,0.21295 0.10647,0.501884 0,0.714844 -0.0753,0.15059 -0.282132,0.206841 -0.357422,0.357421 -0.0543,0.10869 0,0.909473 0,1.070313 l 0,2.857422 c 0,0.16839 -0.0162,1.770919 0,1.787109 0.0842,0.0842 0.273242,-0.0842 0.357422,0 0.0842,0.0842 -0.0842,0.271289 0,0.355469 0.0842,0.0842 0.273242,-0.0842 0.357422,0 0.0842,0.0842 -0.0842,0.273252 0,0.357422 0.0842,0.0842 0.236418,0 0.355468,0 0.18676,0 1.335778,0.0469 1.429688,0 0.15059,-0.0753 0.238372,-0.238372 0.357422,-0.357422 0.11904,-0.11905 0.282132,-0.204889 0.357422,-0.355469 0.0532,-0.10648 -0.0842,-0.273242 0,-0.357422 0.0842,-0.0842 0.271288,0.0842 0.355468,0 0.0842,-0.0842 -0.0842,-0.273242 0,-0.357422 0.0842,-0.0842 0.273242,0.0842 0.357422,0 0.16836,-0.16835 -0.16835,-0.546483 0,-0.714843 0.0842,-0.0842 0.273242,0.0842 0.357422,0 0.0842,-0.0842 -0.0532,-0.250952 0,-0.357422 0.0753,-0.15059 0.282132,-0.206832 0.357422,-0.357422 0.0532,-0.10648 -0.0532,-0.248989 0,-0.355469 0.0753,-0.15059 0.282132,-0.206842 0.357422,-0.357422 0.0534,-0.10672 -0.159368,-1.03357 0.357422,0 0.0708,0.1416 -0.073,0.997293 0,1.070313 0.0842,0.0842 0.273242,-0.0842 0.357422,0 0.0842,0.0842 0,0.238372 0,0.357422 l 0,0.357422 0,1.785156 c 0,0.11904 0.0842,0.273242 0,0.357422 -0.0842,0.0842 -0.273252,-0.0842 -0.357422,0 -0.16836,0.16836 0.16835,0.546493 0,0.714843 -0.0842,0.0842 -0.273242,-0.0842 -0.357422,0 -0.0115,0.0115 0,0.983703 0,1.070313 0,0.11905 -0.0842,0.273242 0,0.357422 0.0842,0.0842 0.273242,-0.0842 0.357422,0 0.0842,0.0842 0,0.238372 0,0.357422 l 0,0.357422 0,1.785156 c 0,0.11905 0.0842,0.273242 0,0.357422 -0.0842,0.0842 -0.273242,-0.0842 -0.357422,0 -0.0144,0.0144 0,1.298527 0,1.429687 0,0.11905 0.0842,0.271289 0,0.355469 -0.0842,0.0842 -0.273242,-0.0842 -0.357422,0 -0.0842,0.0842 -0.0842,0.273252 0,0.357422 0.0842,0.0842 0.250942,-0.0532 0.357422,0 0.15059,0.0753 0.206832,0.282122 0.357422,0.357422 0.10648,0.0532 0.238372,0 0.357422,0 0.11905,0.11904 0.204888,0.28213 0.355468,0.357422 0.10648,0.0532 0.273242,-0.0842 0.357422,0 0.0842,0.0842 -0.0842,0.273241 0,0.357421 0.0842,0.0842 0.273242,-0.0842 0.357422,0 0.0842,0.0842 0,0.238372 0,0.357422 0.11904,0 0.273242,-0.0842 0.357422,0 0.0842,0.0842 -0.0842,0.273242 0,0.357422 0.0842,0.0842 0.273242,-0.0842 0.357422,0 0.0842,0.0842 -0.0842,0.271289 0,0.355469 0.0842,0.0842 0.250942,-0.0532 0.357422,0 0.15058,0.0753 0.206832,0.282132 0.357422,0.357422 0.10648,0.0532 0.271288,-0.0842 0.355468,0 0.0842,0.0842 -0.0842,0.273242 0,0.357422 0.0504,0.0504 0.999006,0.0366 1.072266,0 0.15058,-0.0753 0.206842,-0.282122 0.357422,-0.357422 0.10648,-0.0532 0.273242,0.0842 0.357422,0 0.0842,-0.0842 -0.0842,-0.273242 0,-0.357422 0,-0.16836 0.206832,-0.280179 0.357422,-0.355469 0.95238,0 -0.120722,0.118768 0.355468,-0.357422 0.16836,-0.16836 0.546484,0.16835 0.714844,0 0.0842,-0.0842 -0.0842,-0.273242 0,-0.357422 0.17857,-0.17857 0.893686,0.17857 1.072266,0 0.0842,-0.0842 -0.0842,-0.273241 0,-0.357421 0.0842,-0.0842 0.238372,0 0.357422,0 0.24841,0 1.656006,-0.0646 1.785156,0 0.15059,0.0753 0.206832,0.282131 0.357422,0.357421 0.21295,0.10648 0.49993,-0.10648 0.71289,0 0.15059,0.0753 0.206842,0.282122 0.357422,0.357422 0.10648,0.0532 0.273242,-0.0842 0.357422,0 0.0842,0.0842 -0.0842,0.273242 0,0.357422 0.0842,0.0842 0.250942,-0.0532 0.357422,0 0.15058,0.0753 0.206842,0.280179 0.357422,0.355469 0.10648,0.0532 0.250942,-0.0532 0.357422,0 0.15058,0.0753 0.206832,0.282132 0.357422,0.357422 0.10648,0.0532 0.248988,-0.0532 0.355468,0 0.42857,0.21429 0.643696,0.857985 1.072266,1.072265 0.10648,0.0532 0.273242,-0.0842 0.357422,0 0.0842,0.0842 -0.0842,0.273242 0,0.357422 0.12537,0.12536 1.538466,-0.12335 1.785156,0 0.15058,0.0753 0.206842,0.282132 0.357422,0.357422 0.21296,0.10648 0.546484,-0.16836 0.714844,0 0.0842,0.0842 -0.0842,0.271289 0,0.355469 0.16835,0.16836 0.49993,-0.10648 0.71289,0 0.15059,0.0753 0.206842,0.282132 0.357422,0.357422 0.21296,0.10648 0.501884,-0.10648 0.714844,0 0.15058,0.0753 0.206842,0.282122 0.357422,0.357422 0.21296,0.10648 0.546484,-0.16836 0.714844,0 0.0842,0.0842 -0.0842,0.273239 0,0.357422 0.0842,0.0842 0.271288,-0.0842 0.355468,0 0.0842,0.0842 -0.0842,0.273241 0,0.357421 0.0842,0.0842 0.250952,-0.0532 0.357422,0 0.15059,0.0753 0.238372,0.238372 0.357422,0.357422 0.11905,0.11904 0.282132,0.206832 0.357422,0.357422 0.0532,0.10648 -0.0842,0.271289 0,0.355469 0.0842,0.0842 0.273242,-0.0842 0.357422,0 0.0842,0.0842 -0.0842,0.273242 0,0.357422 0.16836,0.16836 0.546484,-0.16835 0.714844,0 0.16836,0.16836 -0.16836,0.546483 0,0.714844 0.0842,0.0842 0.236418,0 0.355468,0 0.24841,0 1.65795,-0.0646 1.78711,0 0.15058,0.0753 0.206832,0.282131 0.357422,0.357421 0.10648,0.0532 0.248988,-0.0532 0.355468,0 0.15059,0.0753 0.206842,0.282122 0.357422,0.357422 0.1087,0.0543 0.911426,0 1.072266,0 l 2.142578,0 0.357422,0 c 0.11905,0 0.273242,0.0842 0.357422,0 0.0842,-0.0842 -0.0842,-0.273242 0,-0.357422 0.0842,-0.0842 0.238372,0 0.357422,0 l 1.785156,0 c 0.11905,0 0.273242,0.0842 0.357422,0 0.0842,-0.0842 -0.0842,-0.273241 0,-0.357421 0.0842,-0.0842 0.238372,-2e-6 0.357422,0 0.13115,0 1.413364,-0.0144 1.427734,0 0.0842,0.0842 -0.0842,0.273241 0,0.357421 0.073,0.073 0.9306552,-0.0708 1.0722652,0 0.15058,0.0753 0.2048888,0.282122 0.3554688,0.357422 0.21296,0.10648 0.5464837,-0.16836 0.7148437,0 0.0842,0.0842 -0.0842,0.273242 0,0.357422 0.21428,0.21428 0.5005638,-0.21429 0.7148438,0 0.0842,0.0842 -0.0842,0.271289 0,0.355469 0.073,0.073 0.9287125,-0.0708 1.0703125,0 0.15059,0.0753 0.2068421,0.282132 0.3574218,0.357422 0.10648,0.0532 0.2383719,0 0.3574219,0 l 0.3574219,0 1.7851562,0 c 0.8375703,0 -0.1677962,-0.08393 0.7148438,0.357422 0.0923,0.0462 1.88942813,0 2.14257812,0 0.11904002,0 0.27324188,-0.0842 0.35742188,0 0.0842,0.0842 -0.0842,0.273239 0,0.357422 0.16836,0.16836 0.54648375,-0.168363 0.71484375,0 0.16835,0 0.23837191,0.238381 0.35742185,0.357421 0.11905,0.11905 0.2801788,0.206832 0.3554688,0.357422 0.0532,0.10648 -0.0532,0.250942 0,0.357422 0.0753,0.15058 0.282132,0.204889 0.3574218,0.355469 0.10648,0.21296 -0.1064799,0.501884 0,0.714844 0.0753,0.15058 0.3041819,0.1977 0.3574219,0.357422 0.0677,0.20317 0,1.448786 0,1.785156 0,0.0866 0.0115,1.060785 0,1.072265 -0.0842,0.0842 -0.2509418,-0.0532 -0.3574219,0 -0.1505799,0.0753 -0.2068318,0.282122 -0.3574218,0.357422 -0.21344,0.10672 -0.71289065,-0.234828 -0.71289065,0.357422 0,0.042 1.01779245,-0.0525 1.07031245,0 0.0842,0.0842 -0.0842,0.271289 0,0.355469 0.034901,0.0349 0.4207424,0.01565 0.7265626,0.0039 0.00301,-4.21e-4 -0.016895,-0.0039 -0.011719,-0.0039 l 0.7148438,0 c 0.2531398,0 2.0502381,-0.0462 2.1425781,0 0.15059,0.0753 0.2068319,0.282132 0.3574219,0.357422 0.2129498,0.10648 0.5445306,-0.16835 0.7128906,0 0.11516,0 0.5164037,0.615624 0.7148437,0.714844 0.21296,0.10648 0.5018838,-0.10648 0.7148438,0 0.15059,0.0753 0.2068319,0.28213 0.3574219,0.35742 0.1064799,0.0532 0.2383718,0 0.3574218,0 l 0.3554688,0 1.7871092,0 0.357422,0 c 0.11905,0 0.271288,-0.0842 0.355468,0 0.0842,0.0842 -0.0842,0.27324 0,0.35742 0.0842,0.0842 0.250952,-0.0532 0.357422,0 0.15059,0.0753 0.206832,0.28213 0.357422,0.35742 0.21296,0.10648 0.546484,-0.16836 0.714844,0 0.0842,0.0842 -0.0842,0.27129 0,0.35547 0.0842,0.0842 0.250942,-0.0532 0.357422,0 0.15058,0.0753 0.206832,0.28213 0.357422,0.35742 0.1416,0.0708 0.997292,-0.073 1.070312,0 0.0842,0.0842 -0.0842,0.27325 0,0.35743 0.0842,0.0842 0.273242,-0.0842 0.357422,0 0.16836,0.16836 -0.10648,0.50188 0,0.71484 0.0753,0.15059 0.282132,0.20683 0.357422,0.35742 0.10648,0.21296 -0.10648,0.49993 0,0.71289 0.0753,0.15059 0.282122,0.20684 0.357422,0.35742 0.0708,0.14161 -0.073,0.99926 0,1.07227 0.0842,0.0842 0.273242,-0.0842 0.357422,0 0.0842,0.0842 0,0.23837 0,0.35742 l 0,0.35742 c 0,0.25314 -0.0462,2.05024 0,2.14258 0.0753,0.15058 0.280178,0.20683 0.355468,0.35742 0.0543,0.10869 0,0.90948 0,1.07032 0,0.11905 0.0842,0.27324 0,0.35742 -0.0842,0.0842 -0.271288,-0.0842 -0.355468,0 -0.0842,0.0842 0.0842,0.27324 0,0.35742 -0.073,0.073 -0.930666,-0.0708 -1.072266,0 -0.30117,0.15059 -0.413674,0.56425 -0.714844,0.71484 -0.21295,0.10648 -0.49993,-0.10648 -0.71289,0 -0.15059,0.0753 -0.206842,0.28018 -0.357422,0.35547 -0.21296,0.10648 -0.546484,-0.16836 -0.714844,0 -0.0842,0.0842 0.0842,0.27325 0,0.35742 -0.16836,0.16836 -0.546484,-0.16835 -0.714844,0 -0.0842,0.0842 0.0842,0.27325 0,0.35743 -0.0842,0.0842 -0.250942,-0.0532 -0.357422,0 -0.35555,0.17778 -0.35734,0.53707 -0.71289,0.71484 -0.10648,0.0532 -0.273242,-0.0842 -0.357422,0 -0.0842,0.0842 0.0842,0.27324 0,0.35742 -0.0842,0.0842 -0.273242,-0.0842 -0.3574216,0 -0.24,0.24 0.2399996,0.47289 0,0.71289 -0.0842,0.0842 -0.2732419,-0.0842 -0.3574219,0 -0.16836,0.16836 0.10648,0.50189 0,0.71485 -0.0753,0.15058 -0.2821218,0.20684 -0.3574219,0.35742 -0.0199,0.0399 -0.0199,1.74529 0,1.78515 0.7431794,1.48635 -0.024146,-0.38151 0.7148438,0.35743 0.0842,0.0842 0,0.23837 0,0.35742 0.1190496,0 0.2509416,-0.0532 0.3574216,0 0.15059,0.0753 0.282122,0.20684 0.357422,0.35742 0.0366,0.0733 0.0504,1.01995 0,1.07031 -0.0842,0.0842 -0.273242,-0.0842 -0.357422,0 -0.0842,0.0842 0.0842,0.27325 0,0.35742 -0.0842,0.0842 -0.250942,-0.0532 -0.3574216,0 -0.30117,0.15059 -0.4136735,0.56427 -0.7148438,0.71485 -0.1064799,0.0532 -0.2383718,0 -0.3574218,0 -0.23809,0.11905 -0.4914009,0.20976 -0.7128906,0.35742 C 7.9346736,121.00514 7.80117,121.38261 7.5,121.5332 c -0.10648,0.0532 -0.2509419,-0.0532 -0.3574219,0 -0.15059,0.0753 -0.2068319,0.28018 -0.3574219,0.35547 -0.1064799,0.0532 -0.2732418,-0.0842 -0.3574218,0 -0.0842,0.0842 0.0842,0.27325 0,0.35742 -0.16836,0.16836 -0.4999408,-0.10647 -0.7128906,0 -0.1505901,0.0753 -0.2068319,0.28214 -0.3574219,0.35743 -0.10648,0.0532 -0.2732419,-0.0842 -0.3574219,0 -0.0842,0.0842 0.0842,0.27324 0,0.35742 -0.0842,0.0842 -0.2732419,-0.0842 -0.3574219,0 -0.0842,0.0842 0.0842,0.27324 0,0.35742 -0.0842,0.0842 -0.2732418,-0.0842 -0.3574219,0 -0.1683498,0.16836 0.1683602,0.54648 0,0.71484 -0.0842,0.0842 -0.2732418,-0.0842 -0.3574218,0 -0.0115,0.0115 0,0.9837 0,1.07032 l 0,2.85742 c 0,0.16084 0.0543,0.96357 0,1.07226 -0.0753,0.15058 -0.2801788,0.20489 -0.3554688,0.35547 -0.0532,0.10648 0.0532,0.25095 0,0.35742 -0.21429,0.42858 -0.8579756,0.6437 -1.0722656,1.07227 -0.0532,0.10648 0.0842,0.27324 0,0.35742 -0.0842,0.0842 -0.2732419,-0.0842 -0.3574219,0 -0.0842,0.0842 0.0532,0.25094 0,0.35742 -0.0753,0.15058 -0.2821218,0.20489 -0.3574219,0.35547 -0.1126499,0.22531 0.1126601,1.5618 0,1.78711 -0.0753,0.15058 -0.2821318,0.20683 -0.3574218,0.35742 -0.11223,0.22447 0.11224,1.20327 0,1.42774 -0.0753,0.15059 -0.2801788,0.20684 -0.3554688,0.35742 -0.0646,0.12916 0,1.53675 0,1.78516 l 0,4.64257 0,2.5 c 0,0.16085 -0.0543,0.96358 0,1.07227 0.0753,0.15059 0.2801788,0.20683 0.3554688,0.35742 0.0532,0.10648 -0.0532,0.25094 0,0.35742 0.0753,0.15058 0.282132,0.20489 0.3574218,0.35547 0.0532,0.10648 -0.0842,0.27325 0,0.35742 0.0842,0.0842 0.2732419,-0.0842 0.3574219,0 0.0842,0.0842 -0.0842,0.27325 0,0.35743 0.0842,0.0842 0.2732419,-0.0842 0.3574219,0 0.0842,0.0842 -0.0842,0.27324 0,0.35742 0.16836,0.16836 0.5018837,-0.10648 0.7148438,0 0.1505798,0.0753 0.2068318,0.28213 0.3574218,0.35742 l 0.3554688,0 c 0.11905,0 -0.2489888,0.0532 -0.3554688,0 l -4.28710935,0 c -0.25314,0 -2.05023815,0.0462 -2.14257815,0 -0.15059,-0.0753 -0.2068319,-0.28213 -0.3574219,-0.35742 -0.2244698,-0.11224 -1.2032543,0.11224 -1.4277343,0 -0.15058,-0.0753 -0.2068419,-0.28213 -0.3574219,-0.35742 -0.21296,-0.10648 -0.5018837,0.10648 -0.7148438,0 -0.1505799,-0.0753 -0.2068318,-0.28213 -0.3574218,-0.35743 -0.10648,-0.0532 -0.2712888,0.0842 -0.3554688,0 -0.0115,-0.0115 0,-0.9837 0,-1.07031 l 0,-0.35742 c 0,-0.11904 -0.11905,-0.35742 0,-0.35742 l 0,-0.71485 c 0,-0.11904 -0.11905,-0.35742 0,-0.35742 0.020326,0 0.024981,0.0284 0.033203,0.0508 0.019205,-0.14266 0.028572,-0.2827 -0.033203,-0.40625 -0.0532,-0.10648 -0.2732419,0.0842 -0.3574218,0 -0.1683602,-0.16836 0.1064798,-0.50188 0,-0.71484 -0.0753,-0.15058 -0.2821219,-0.20683 -0.3574219,-0.35742 -0.11223,-0.22447 0.11224,-1.20327 0,-1.42774 -0.0753,-0.15059 -0.2821319,-0.20684 -0.3574219,-0.35742 -0.10648,-0.21296 0.16836,-0.54648 0,-0.71484 -0.0842,-0.0842 -0.2732419,0.0842 -0.3574219,0 -0.0842,-0.0842 0.0532,-0.25094 0,-0.35742 -0.0753,-0.15059 -0.2821218,-0.20684 -0.3574219,-0.35743 -0.0532,-0.10647 0.0842,-0.27324 0,-0.35742 -0.0842,-0.0842 -0.2732418,0.0842 -0.3574218,0 -0.0842,-0.0842 0.0532,-0.24899 0,-0.35547 -0.0753,-0.15059 -0.2801788,-0.20684 -0.3554688,-0.35742 -0.0532,-0.10648 0.0842,-0.27324 0,-0.35742 -0.0842,-0.0842 -0.273242,0.0842 -0.3574218,0 -0.1683603,-0.16836 0.1683497,-0.54648 0,-0.71484 -0.0842,-0.0842 -0.2732419,0.0842 -0.3574219,0 -0.0842,-0.0842 0.0532,-0.25095 0,-0.35743 -0.0753,-0.15058 -0.2821319,-0.20683 -0.3574219,-0.35742 -0.0532,-0.10648 0.0842,-0.27129 0,-0.35547 -0.0842,-0.0842 -0.273242,0.0842 -0.357422,0 -0.0842,-0.0842 0.0842,-0.27324 0,-0.35742 -0.0842,-0.0842 -0.273242,0.0842 -0.357422,0 -0.0842,-0.0842 0.0532,-0.25094 0,-0.35742 -0.0753,-0.15058 -0.282132,-0.20683 -0.357422,-0.35742 -0.0532,-0.10648 0.0532,-0.25094 0,-0.35742 -0.0753,-0.15059 -0.280178,-0.20684 -0.355468,-0.35743 -0.10648,-0.21295 0.10648,-0.49993 0,-0.71289 -0.0753,-0.15059 -0.282132,-0.20684 -0.357422,-0.35742 -0.0532,-0.10648 0.0532,-0.25094 0,-0.35742 -0.0753,-0.15058 -0.282122,-0.20683 -0.357422,-0.35742 -0.0708,-0.1416 0.073,-0.99926 0,-1.07227 -0.0842,-0.0842 -0.273242,0.0842 -0.357422,0 -0.0162,-0.0162 0,-1.61676 0,-1.78515 0,-0.11905 0.0842,-0.27325 0,-0.35743 -0.0842,-0.0842 -0.273242,0.0842 -0.357422,0 -0.0842,-0.0842 0.0842,-0.27324 0,-0.35742 -0.0842,-0.0842 -0.273242,0.0842 -0.357422,0 -0.16835,-0.16836 0.16836,-0.54454 0,-0.71289 -0.0842,-0.0842 -0.273242,0.0842 -0.357422,0 -0.0842,-0.0842 0.0842,-0.27324 0,-0.35742 -0.0842,-0.0842 -0.248988,0.0532 -0.355468,0 -1.48634,-0.74317 0.381518,0.0241 -0.357422,-0.71484 -0.0842,-0.0842 -0.273242,0.0842 -0.357422,0 -0.0842,-0.0842 0.0842,-0.27325 0,-0.35743 -0.16836,-0.16835 -0.546484,0.16836 -0.714844,0 -0.0842,-0.0842 0.0842,-0.27324 0,-0.35742 -0.16836,-0.16836 -0.546484,0.16836 -0.714844,0 -0.0842,-0.0842 0.0842,-0.27129 0,-0.35547 -0.0842,-0.0842 -0.271288,0.0842 -0.355468,0 -0.0842,-0.0842 0.0842,-0.27324 0,-0.35742 -0.0842,-0.0842 -0.250942,0.0532 -0.357422,0 -0.15059,-0.0753 -0.206832,-0.28212 -0.357422,-0.35742 -0.22447,-0.11223 -1.205218,0.11224 -1.429688,0 -0.15058,-0.0753 -0.204888,-0.28213 -0.355468,-0.35742 -0.10648,-0.0532 -0.273242,0.0842 -0.357422,0 -0.0842,-0.0842 0.0532,-0.25094 0,-0.35742 -0.21429,-0.42857 -0.857986,-0.64175 -1.072266,-1.07032 -0.0532,-0.10648 0.0842,-0.27324 0,-0.35742 -0.0842,-0.0842 -0.250942,0.0532 -0.357422,0 -1.48634,-0.74318 0.381518,0.0241 -0.357422,-0.71484 -0.0842,-0.0842 -0.271288,0.0842 -0.355468,0 -0.0842,-0.0842 0.0532,-0.25094 0,-0.35742 -0.0753,-0.15059 -0.282132,-0.20684 -0.357422,-0.35743 -0.0532,-0.10647 0.0842,-0.27324 0,-0.35742 -0.0842,-0.0842 -0.250942,0.0532 -0.357422,0 -0.30117,-0.15058 -0.413674,-0.56231 -0.714844,-0.71289 -0.10648,-0.0532 -0.273242,0.0842 -0.357422,0 -0.0842,-0.0842 0.0842,-0.27324 0,-0.35742 -0.0842,-0.0842 -0.273242,0.0842 -0.357422,0 -0.0842,-0.0842 0.0842,-0.27324 0,-0.35742 -0.16836,-0.16836 -0.54454,0.16836 -0.71289,0 -0.0842,-0.0842 0.0842,-0.27324 0,-0.35742 -0.0842,-0.0842 -0.273242,0.0842 -0.357422,0 -0.0842,-0.0842 0.0842,-0.27325 0,-0.35743 -0.16836,-0.16835 -0.501884,0.10648 -0.714844,0 -0.15059,-0.0753 -0.206832,-0.28213 -0.357422,-0.35742 -0.10647,-0.0532 -0.250942,0.0532 -0.357422,0 -0.30117,-0.15058 -0.41173,-0.56231 -0.71289,-0.71289 -0.10648,-0.0532 -0.273242,0.0842 -0.357422,0 -0.0842,-0.0842 0.0842,-0.27324 0,-0.35742 -0.0842,-0.0842 -0.250942,0.0532 -0.357422,0 -0.30117,-0.15058 -0.413674,-0.56426 -0.714844,-0.71484 -0.10647,-0.0532 -0.273242,0.0842 -0.357422,0 -0.0842,-0.0842 0.0842,-0.27325 0,-0.35743 -0.73894,-0.73894 0.03029,1.12892 -0.71289,-0.35742 -0.0532,-0.10648 0.0842,-0.27129 0,-0.35547 -0.0842,-0.0842 -0.273242,0.0842 -0.357422,0 -0.16836,-0.16836 0.16836,-0.54648 0,-0.71484 -0.0842,-0.0842 -0.273242,0.0842 -0.357422,0 -0.0842,-0.0842 0.0842,-0.27324 0,-0.35742 -0.0842,-0.0842 -0.273242,0.0842 -0.357422,0 -0.0842,-0.0842 0.0532,-0.25094 0,-0.35742 -0.0753,-0.15059 -0.282122,-0.20684 -0.357422,-0.35743 -0.0532,-0.10647 0.0842,-0.27324 0,-0.35742 -0.0842,-0.0842 -0.250942,0.0532 -0.357422,0 -0.42857,-0.21428 -0.641742,-0.85602 -1.070312,-1.07031 -0.10648,-0.0532 -0.273242,0.0842 -0.357422,0 -0.0842,-0.0842 0.0842,-0.27324 0,-0.35742 -0.0842,-0.0842 -0.273242,0.0842 -0.357422,0 0,-0.95238 0.118768,0.11877 -0.357422,-0.35742 -0.0842,-0.0842 0.0842,-0.27325 0,-0.35743 -0.0842,-0.0842 -0.273242,0.0842 -0.357422,0 -0.0842,-0.0842 0.0532,-0.25094 0,-0.35742 -1.18449,-1.18449 0.170032,0.33811 -0.355468,-0.71289 -0.15059,-0.30117 -0.564254,-0.41367 -0.714844,-0.71484 -0.0532,-0.10648 0.0532,-0.25094 0,-0.35742 -0.81291,-0.81291 -0.09468,0.0734 -0.357422,-0.71485 -0.86231,-2.58693 0.102416,0.5642 -0.714844,-1.07031 -0.0532,-0.10648 0.0842,-0.27324 0,-0.35742 -0.0842,-0.0842 -0.273242,0.0842 -0.357422,0 -0.16836,-0.16836 0.16836,-0.54649 0,-0.71485 -0.0842,-0.0842 -0.271288,0.0842 -0.355468,0 -0.0842,-0.0842 0.0842,-0.27324 0,-0.35742 -0.0842,-0.0842 -0.273252,0.0842 -0.357422,0 -0.16836,-0.16836 0.16835,-0.54454 0,-0.71289 -0.0842,-0.0842 -0.273242,0.0842 -0.357422,0 -0.16836,-0.16836 0.16836,-0.54648 0,-0.71484 -0.0842,-0.0842 -0.273242,0.0842 -0.357422,0 -0.16836,-0.16836 0.10648,-0.50189 0,-0.71485 -0.0753,-0.15058 -0.282132,-0.20683 -0.357422,-0.35742 -0.0532,-0.10648 0.0842,-0.27129 0,-0.35547 -0.0842,-0.0842 -0.273242,0.0842 -0.357422,0 -0.0842,-0.0842 0,-0.23838 0,-0.35742 0,-0.6722 0.01978,-0.94842 0.03711,-1.18945 -0.05707,0.1946 -0.169694,0.34202 -0.394532,0.11719 -0.72,-0.72 0.72,0.005 0,-0.71485 -0.0842,-0.0842 -0.271288,0.0842 -0.355468,0 -0.16836,-0.16836 0.16836,-0.54454 0,-0.71289 -0.0842,-0.0842 -0.273252,0.0842 -0.357422,0 -0.17858,-0.17858 0.17857,-0.89369 0,-1.07226 -0.0842,-0.0842 -0.273242,0.0842 -0.357422,0 -0.0842,-0.0842 0.0842,-0.273246 0,-0.357426 -0.0842,-0.0842 -0.273242,0.0842 -0.357422,0 -0.73894,-0.73894 1.128918,0.03029 -0.357422,-0.712891 -0.10648,-0.0532 -0.273242,0.0842 -0.357422,0 -0.0842,-0.0842 0.0532,-0.250942 0,-0.357422 -0.0753,-0.15059 -0.282132,-0.206832 -0.357422,-0.357422 -0.0532,-0.10648 0.0842,-0.273241 0,-0.357421 -0.0842,-0.0842 -0.271288,0.0842 -0.355468,0 0,-0.952383 0.118768,0.118768 -0.357422,-0.357422 -0.16836,-0.16836 0.16835,-0.546484 0,-0.714844 -0.0842,-0.0842 -0.250942,0.0532 -0.357422,0 -1.48634,-0.74317 0.381518,0.02609 -0.357422,-0.712891 -0.0842,-0.0842 -0.273242,0.0842 -0.357422,0 -0.0842,-0.0842 0.0532,-0.250942 0,-0.357422 -0.15059,-0.30117 -0.564254,-0.413673 -0.714844,-0.714843 -0.10648,-0.21296 0.16836,-0.546484 0,-0.714844 -0.0842,-0.0842 -0.271288,0.0842 -0.355468,0 -0.0842,-0.0842 0.0532,-0.248989 0,-0.355469 -1.1845,-1.1845 0.168078,0.336166 -0.357422,-0.714844 -0.21429,-0.42857 -0.857986,-0.643685 -1.072266,-1.072265 -0.0532,-0.10648 0,-0.238372 0,-0.357422 -0.16836,0 -0.282122,-0.204889 -0.357422,-0.355469 0,0.2662 -0.357422,-0.448644 -0.357422,-0.714844 0,-0.165728 0.271202,0.192702 0.351563,0.347657 -0.01459,-2.233332 -0.138342,-0.136389 -0.707031,-0.705078 -0.0162,-0.0162 0,-1.616767 0,-1.785157 0,-0.18676 -0.0469,-1.335777 0,-1.429687 0.0753,-0.15058 0.280178,-0.206832 0.355468,-0.357422 0.0532,-0.10648 -0.0842,-0.271289 0,-0.355469 0.0842,-0.0842 0.273242,0.0842 0.357422,0 0.0077,-0.0077 0.0026,-0.399938 0,-0.714844 l 0,-0.357421 0,-0.357422 0,-2.5 0,-0.357422 c 0,-0.11904 0.0842,-0.273242 0,-0.357422 -0.47619,-0.47619 -0.357422,0.596911 -0.357422,-0.355469 l 0,-2.144531 c 0,-0.11905 0.0842,-0.271289 0,-0.355469 -0.16836,-0.16836 -0.54454,0.16836 -0.71289,0 -0.0842,-0.0842 0.0842,-0.273242 0,-0.357422 -0.0842,-0.0842 -0.273242,0.0842 -0.357422,0 -0.0842,-0.0842 0.0842,-0.273242 0,-0.357422 -0.95238,0 0.118768,0.118769 -0.357422,-0.357421 -0.0842,-0.0842 -0.250942,0.0532 -0.357422,0 -0.15059,-0.0753 -0.206832,-0.282132 -0.357422,-0.357422 -0.08357,-0.04175 -0.251959,0.05094 -0.322265,0.03711 -0.137209,0.01775 -0.271648,0.02238 -0.390625,-0.03711 -0.10648,-0.0532 0.0842,-0.273242 0,-0.357422 -0.16836,-0.16835 -0.501884,0.10648 -0.714844,0 -1.48634,-0.74317 0.381518,0.02609 -0.357422,-0.712891 -0.0842,-0.0842 -0.273242,0.0842 -0.357422,0 -0.0842,-0.0842 0,-0.238382 0,-0.357422 l 0,-1.787109 0,-1.785156 0,-0.714844 c 0,-0.11905 -0.11905,-0.355469 0,-0.355469 l 0,-0.357422 c 0,-0.83757 0.08393,0.167795 -0.357422,-0.714843 -0.0532,-0.106482 -0.11904,-0.357422 0,-0.357422 0.02027,0 0.02693,0.0265 0.03516,0.04883 0.01917,-0.142547 0.02657,-0.282801 -0.03516,-0.40625 -0.0532,-0.10648 -0.273242,0.0842 -0.357422,0 -0.0859,-0.0859 0.0859,-1.341795 0,-1.427735 -0.0842,-0.0842 -0.271288,0.0842 -0.355468,0 -0.0842,-0.0842 0.0842,-0.273241 0,-0.357421 -0.0842,-0.0842 -0.273252,0.0842 -0.357422,0 -0.0842,-0.0842 0.0842,-0.273242 0,-0.357422 -0.0842,-0.0842 -0.250942,0.0532 -0.357422,0 -0.30117,-0.15059 -0.413674,-0.564254 -0.714844,-0.714844 -0.10648,-0.0532 -0.273242,0.0842 -0.357422,0 0,-0.95238 0.118768,0.120721 -0.357422,-0.355469 -0.0842,-0.0842 0.0842,-0.273242 0,-0.357422 -0.95049,-0.9505 0.2376,0.95049 -0.71289,0 -0.0842,-0.0842 0.0842,-0.273242 0,-0.357422 -0.16836,-0.16835 -0.546484,0.16836 -0.714844,0 -0.0842,-0.0842 0,-0.238371 0,-0.357421 l 0,-2.5 c 0,-0.131161 0.0144,-1.413365 0,-1.427735 -0.0842,-0.0842 -0.273242,0.0842 -0.357422,0 -0.0842,-0.0842 0.0532,-0.250942 0,-0.357422 -0.0753,-0.15059 -0.282122,-0.206832 -0.357422,-0.357422 -0.0532,-0.10648 0.0842,-0.273241 0,-0.357421 -0.0842,-0.0842 -0.273242,0.0842 -0.357422,0 -0.0842,-0.0842 0,-0.238372 0,-0.357422 l 0,-0.357422 0,-2.142578 0,-0.357422 c 0,-0.11905 0.0532,-0.250942 0,-0.357422 -0.0753,-0.15058 -0.280178,-0.204889 -0.355468,-0.355469 -0.0532,-0.10648 0.0842,-0.273242 0,-0.357422 -0.04785,-0.04785 -0.130026,-0.01673 -0.207032,0.0059 A 85.35714,85.35714 0 0 0 -58.927734,75.461 85.35714,85.35714 0 0 0 26.427734,160.81842 85.35714,85.35714 0 0 0 111.78516,75.461 85.35714,85.35714 0 0 0 110.39062,60.595765 c -0.0124,0.01508 -0.0144,0.0242 -0.0332,0.04297 -0.0421,0.0421 -0.1376,-0.0421 -0.17969,0 -0.0421,0.0421 0.0421,0.137597 0,0.179687 -0.0421,0.0421 -0.13564,-0.0421 -0.17773,0 -0.0421,0.0421 0.0421,0.135635 0,0.177735 -0.0421,0.0421 -0.13564,-0.0421 -0.17773,0 -0.47643,0.47642 0.47643,-0.119008 0,0.357422 -0.0421,0.0421 -0.1376,-0.0421 -0.17969,0 -0.0421,0.0421 0.0421,0.137597 0,0.179687 -0.0421,0.0421 -0.13565,-0.0421 -0.17774,0 -0.0421,0.0421 0.0421,0.135645 0,0.177735 -0.0842,0.0842 -0.27324,-0.0842 -0.35742,0 -0.0421,0.0421 0.0421,0.135644 0,0.177734 -0.0421,0.0421 -0.1376,-0.0421 -0.17969,0 -0.0421,0.0421 0.0421,0.137597 0,0.179687 -0.0421,0.0421 -0.11821,0 -0.17773,0 l -0.17773,0 -1.07227,0 -0.17773,0 c -0.0595,0 -0.1376,-0.0421 -0.17969,0 -0.0421,0.0421 0.0421,0.135635 0,0.177735 -0.0421,0.0421 -0.13565,-0.0421 -0.17774,0 -0.0421,0.0421 0.0421,0.137597 0,0.179687 -0.0421,0.0421 -0.13759,-0.0421 -0.17968,0 -0.0421,0.0421 0.0421,0.135645 0,0.177735 -0.0421,0.0421 -0.13565,-0.0421 -0.17774,0 -0.0421,0.0421 0.0421,0.137597 0,0.179687 -0.47642,0.47643 0.11901,-0.47643 -0.35742,0 -0.0421,0.0421 0.0421,0.135645 0,0.177735 -0.0842,0.0842 -0.25094,-0.0532 -0.35742,0 -0.0753,0.0376 -0.10245,0.140094 -0.17774,0.177734 -0.0532,0.0266 -0.13759,-0.0421 -0.17968,0 -0.0421,0.0421 0,0.120167 0,0.179687 l 0,0.714844 c 0,0.0595 -0.0266,0.124495 0,0.177735 0.37159,0.74317 -0.012,-0.191736 0.35742,0.177734 0.0421,0.0421 -0.0266,0.126447 0,0.179687 0.0237,0.0474 0.48774,0.511447 0.53515,0.535157 0.0532,0.0266 0.12645,-0.0266 0.17969,0 0.21429,0.10714 0.32087,0.428016 0.53516,0.535156 0.0532,0.0266 0.1376,-0.0421 0.17969,0 0.0421,0.0421 -0.0421,0.137597 0,0.179687 0.0842,0.0842 0.27128,-0.0842 0.35546,0 0.0421,0.0421 -0.0421,0.135645 0,0.177735 0.0421,0.0421 0.12645,-0.0266 0.17969,0 0.0753,0.0376 0.10245,0.142037 0.17774,0.179687 0.0532,0.0266 0.12644,-0.0266 0.17968,0 0.0753,0.0376 0.10244,0.140085 0.17774,0.177735 0.0532,0.0266 0.12645,-0.0266 0.17969,0 0.0753,0.0376 0.10244,0.142037 0.17773,0.179687 0.0532,0.0266 0.13564,-0.0421 0.17773,0 0.0421,0.0421 -0.0421,0.135645 0,0.177735 0.0421,0.0421 0.1376,-0.0421 0.17969,0 0.0421,0.0421 -0.0266,0.124494 0,0.177734 0.0376,0.0753 0.1401,0.104397 0.17774,0.179687 0.0532,0.10648 -0.0842,0.273242 0,0.357422 0.0421,0.0421 0.13759,-0.0421 0.17968,0 0.0421,0.0421 0,0.118205 0,0.177735 l 0,1.429687 c 0,0.0934 -0.0235,0.665931 0,0.712891 0.0376,0.0753 0.14009,0.104387 0.17774,0.179687 0.0266,0.0532 0,0.118205 0,0.177735 l 0,0.179687 0,0.892578 c 0,0.0595 -0.0266,0.124495 0,0.177735 0.0376,0.0753 0.14204,0.104397 0.17969,0.179687 0.0266,0.0532 0,0.118215 0,0.177735 0,0.0595 0.0421,0.135644 0,0.177734 -0.0421,0.0421 -0.1376,-0.0421 -0.17969,0 -0.0893,0.0893 0.0893,0.447819 0,0.537109 -0.0421,0.0421 -0.13565,-0.0421 -0.17774,0 -0.0553,0.0553 0.0553,0.837288 0,0.892578 -0.0421,0.0421 -0.13759,-0.0421 -0.17968,0 -0.0553,0.0553 0.0553,0.837289 0,0.892579 -0.0421,0.0421 -0.13565,-0.0421 -0.17774,0 -0.0553,0.0553 0.0553,0.837278 0,0.892578 -0.0421,0.0421 -0.1376,-0.0421 -0.17969,0 -0.0421,0.0421 0,0.120167 0,0.179687 0,0.0595 -0.0421,0.135645 0,0.177735 0.0421,0.0421 0.1376,-0.0421 0.17969,0 0.0252,0.0252 0.0183,0.498526 0,0.535156 -0.0376,0.0753 -0.14204,0.104387 -0.17969,0.179687 -0.0532,0.10648 0.0532,0.250942 0,0.357422 -0.0376,0.0753 -0.14008,0.102445 -0.17773,0.177735 -0.0532,0.106479 0.0842,0.273241 0,0.357421 -0.0421,0.0421 -0.13564,-0.0421 -0.17773,0 -0.0421,0.0421 0.0266,0.124495 0,0.177735 -0.59225,0.59224 0.0831,-0.168078 -0.17969,0.357422 -0.0376,0.0753 -0.11822,0.120167 -0.17774,0.179687 -0.0595,0.0595 -0.14203,0.102445 -0.17968,0.177735 -0.0266,0.0532 0.0266,0.124494 0,0.177734 -0.0413,0.0827 -0.60787,0.609814 -0.71289,0.714844 l -0.17969,0.179687 c -0.0595,0.0595 -0.1401,0.102445 -0.17774,0.177735 -0.0266,0.0532 0.0421,0.135644 0,0.177734 -0.0421,0.0421 -0.13759,-0.0421 -0.17968,0 -0.0421,0.0421 0.0421,0.137597 0,0.179687 -0.0421,0.0421 -0.13565,-0.0421 -0.17774,0 -0.0421,0.0421 0.0266,0.124495 0,0.177735 -0.0376,0.0753 -0.14204,0.104387 -0.17969,0.179687 -0.0266,0.0532 0.0266,0.124495 0,0.177735 -0.0376,0.0753 -0.14008,0.104397 -0.17773,0.179687 -0.0265,0.053 0,0.897593 0,1.070313 l 0,2.322265 0,0.177735 c 0,0.0595 0.0421,0.137597 0,0.179687 -0.0421,0.0421 -0.13564,-0.0421 -0.17773,0 -0.0489,0.0489 0.0484,0.616011 0,0.712891 -0.0377,0.0753 -0.14205,0.104387 -0.17969,0.179687 -0.0266,0.0532 0.0266,0.124495 0,0.177735 -0.0376,0.0753 -0.15112,0.09982 -0.17774,0.179687 -0.0376,0.11294 0.0376,0.242529 0,0.355469 -0.0266,0.0799 -0.14203,0.104397 -0.17968,0.179687 -0.0266,0.0532 0.0188,0.121265 0,0.177735 -0.43115,1.29346 0.0512,-0.280141 -0.35743,0.537109 -0.0266,0.0532 0,0.118215 0,0.177735 -0.0595,0.11905 -0.1039,0.246681 -0.17773,0.357421 -0.0467,0.07 -0.14009,0.102435 -0.17773,0.177735 -0.0266,0.0532 0.0266,0.126447 0,0.179687 -0.0377,0.0753 -0.14205,0.102445 -0.17969,0.177735 -0.0266,0.0532 0.0421,0.137597 0,0.179687 -0.0421,0.0421 -0.13565,-0.0421 -0.17774,0 -0.0842,0.0842 0.0842,0.271289 0,0.355469 -0.0421,0.0421 -0.13759,-0.0421 -0.17968,0 -0.0421,0.0421 0.0266,0.126447 0,0.179687 -0.0376,0.0753 -0.14009,0.102435 -0.17774,0.177735 -0.0266,0.0532 0.0421,0.137597 0,0.179687 -0.0421,0.0421 -0.1376,-0.0421 -0.17969,0 -0.0421,0.0421 0.0266,0.124495 0,0.177735 -0.0879,0.17572 -0.62503,0.539123 -0.71289,0.714843 -0.0266,0.0532 0.0266,0.124495 0,0.177735 -0.10715,0.21428 -0.42997,0.322819 -0.53711,0.537109 -0.0266,0.0532 0.0421,0.135645 0,0.177735 -0.0421,0.0421 -0.13564,-0.0421 -0.17773,0 -0.0842,0.0842 0.0532,0.250941 0,0.357421 -0.0376,0.0753 -0.14009,0.102435 -0.17773,0.177735 -0.0266,0.0532 0.0266,0.126447 0,0.179687 -0.0377,0.0753 -0.14205,0.102445 -0.17969,0.177735 -0.0532,0.10648 0.0532,0.250941 0,0.357422 -0.0376,0.0753 -0.1401,0.102444 -0.17774,0.177734 -0.0955,0.19105 0.0955,0.166372 0,0.357422 -0.0376,0.0753 -0.14203,0.104387 -0.17968,0.179687 -0.0532,0.10648 0.0532,0.250942 0,0.357422 -0.0376,0.0753 -0.14009,0.102445 -0.17774,0.177735 -0.0354,0.0708 0.0365,0.498646 0,0.535156 -0.0421,0.0421 -0.1376,-0.0421 -0.17969,0 -0.0842,0.0842 0.0842,0.273242 0,0.357422 -0.0421,0.0421 -0.13564,-0.0421 -0.17773,0 -0.0421,0.0421 0.0266,0.126447 0,0.179687 -0.0376,0.0753 -0.14009,0.102445 -0.17773,0.177735 -0.0532,0.106479 0.0532,0.250941 0,0.357421 -0.0377,0.0753 -0.14205,0.102435 -0.17969,0.177735 -0.0266,0.0532 0.0266,0.126447 0,0.179687 -0.0376,0.0753 -0.1401,0.102445 -0.17774,0.177735 -0.0266,0.0532 0.0421,0.137597 0,0.179687 -0.0421,0.0421 -0.13759,-0.0421 -0.17968,0 -0.0421,0.0421 0.0266,0.124495 0,0.177735 -0.0753,0.15059 -0.28214,0.206841 -0.35743,0.357421 -0.0266,0.0532 0.0266,0.124495 0,0.177735 -0.406446,0.40645 -0.0464,-0.03672 -0.17773,0.357422 -0.43116,1.29347 0.0512,-0.282094 -0.357422,0.535156 -0.0266,0.0532 0.0266,0.126447 0,0.179687 -0.0376,0.0753 -0.118214,0.118205 -0.177734,0.177735 l -0.179688,0.179687 -0.177734,0.177735 c -0.0595,0.0595 -0.142038,0.104397 -0.179688,0.179687 -0.0266,0.0532 0.0266,0.124495 0,0.177735 -0.0753,0.15059 -0.280178,0.206841 -0.355468,0.357421 -0.0532,0.10648 0.0532,0.250942 0,0.357422 -0.0879,0.17572 -0.626984,0.537171 -0.714844,0.712891 -0.0266,0.0532 0.0421,0.137597 0,0.179687 -0.0421,0.0421 -0.137598,-0.0421 -0.179688,0 -0.0421,0.0421 0.0421,0.135645 0,0.177735 -0.0421,0.0421 -0.124494,-0.0266 -0.177734,0 -0.39483,0.19741 -0.05456,0.111102 -0.177734,0.357423 -0.0376,0.0753 -0.142048,0.10439 -0.179688,0.17968 -0.0266,0.0532 0.0421,0.13565 0,0.17774 -0.0421,0.0421 -0.135644,-0.0421 -0.177734,0 -0.0421,0.0421 0.0266,0.12449 0,0.17773 -0.0682,0.13641 -0.4968,0.41619 -0.53711,0.53711 -0.0376,0.11293 0.0376,0.24448 0,0.35742 -0.0266,0.0799 -0.118214,0.11822 -0.177734,0.17774 -0.20431,0.20431 -0.249312,0.21083 -0.357422,0.53515 -0.0376,0.11294 0.0532,0.25095 0,0.35743 -0.0376,0.0753 -0.140094,0.10439 -0.177734,0.17968 -0.0532,0.10648 0.0532,0.24899 0,0.35547 -0.0377,0.0753 -0.142038,0.1044 -0.179688,0.17969 -0.0266,0.0532 0.0266,0.1245 0,0.17773 -0.0377,0.0753 -0.140084,0.10439 -0.177734,0.17969 -0.0266,0.0532 0,0.11821 0,0.17774 -0.0595,0.0595 -0.142038,0.10439 -0.179688,0.17968 -0.0532,0.10648 0.0532,0.24899 0,0.35547 -0.0376,0.0753 -0.140084,0.1044 -0.177734,0.17969 -0.0272,0.0543 0,0.45474 0,0.53516 l 0,1.25 0,1.78515 0,0.17969 c 0,0.0595 0.0421,0.13565 0,0.17773 -0.0421,0.0421 -0.135644,-0.0421 -0.177734,0 -0.0489,0.0489 0.0484,0.61798 0,0.71485 -0.0376,0.0753 -0.142048,0.10244 -0.179688,0.17773 -0.0532,0.10648 0.0532,0.25095 0,0.35742 -0.0376,0.0753 -0.140094,0.10439 -0.177734,0.17969 -0.0714,0.14285 0.0714,0.3923 0,0.53516 -0.0377,0.0753 -0.142038,0.10244 -0.179688,0.17773 -0.0266,0.0532 0.0421,0.1376 0,0.17969 -0.0421,0.0421 -0.135644,-0.0421 -0.177734,0 -0.0842,0.0842 0.0532,0.25094 0,0.35742 -0.37158,0.74317 0.01202,-0.19173 -0.357422,0.17774 -0.0421,0.0421 0.0188,0.12321 0,0.17968 -0.0421,0.12627 -0.103904,0.24473 -0.177734,0.35547 -0.0467,0.07 -0.132998,0.10965 -0.179688,0.17969 -0.14766,0.22149 -0.209752,0.49335 -0.357422,0.71484 -0.14008,0.21012 -0.383636,0.33313 -0.535156,0.53516 -0.0799,0.10648 -0.09786,0.25094 -0.177734,0.35742 -0.10102,0.13468 -0.256412,0.22273 -0.357422,0.35742 -0.0799,0.10648 -0.08561,0.26136 -0.179688,0.35547 -0.0941,0.0941 -0.246672,0.10586 -0.357422,0.17969 -0.07,0.0467 -0.102444,0.14009 -0.177734,0.17773 -0.0532,0.0266 -0.135644,-0.0421 -0.177734,0 -0.0421,0.0421 0.0421,0.1376 0,0.17969 -0.0421,0.0421 -0.137598,-0.0421 -0.179688,0 -0.0421,0.0421 0.0421,0.13565 0,0.17774 -0.0421,0.0421 -0.135644,-0.0421 -0.177734,0 -0.0842,0.0842 0.0842,0.27324 0,0.35742 -0.0421,0.0421 -0.137598,-0.0421 -0.179688,0 -0.0421,0.0421 0,0.11821 0,0.17773 l 0,1.07227 0,0.17773 c 0,0.0595 -0.0266,0.12645 0,0.17969 0.0376,0.0753 0.142038,0.10244 0.179688,0.17773 0.0266,0.0532 0,0.12016 0,0.17969 l 0,0.17774 0,0.89257 0,0.89258 c 0,0.11734 0.0336,0.43636 0,0.53711 -0.0421,0.12627 -0.137598,0.23115 -0.179688,0.35742 -0.0188,0.0565 0.0266,0.1245 0,0.17774 -0.0377,0.0753 -0.140084,0.10244 -0.177734,0.17773 -0.0266,0.0532 0.0266,0.12645 0,0.17969 -0.0376,0.0753 -0.142038,0.10244 -0.179688,0.17773 -0.0532,0.10648 0.0842,0.27325 0,0.35743 -0.0421,0.0421 -0.135644,-0.0421 -0.177734,0 -0.0842,0.0842 0.0842,0.27324 0,0.35742 -0.0421,0.0421 -0.135644,-0.0421 -0.177734,0 -0.043,0.043 0.043,0.67187 0,0.71484 -0.0421,0.0421 -0.137598,-0.0421 -0.179688,0 -0.0421,0.0421 0,0.11821 0,0.17774 l 0,0.17968 0,0.89258 0,0.17774 c 0,0.0595 0.0266,0.12644 0,0.17968 -0.0376,0.0753 -0.140094,0.10245 -0.177734,0.17774 -0.0266,0.0532 0.0266,0.12449 0,0.17773 -0.0377,0.0753 -0.142038,0.1044 -0.179688,0.17969 -0.0532,0.10648 0.0842,0.27324 0,0.35742 -0.0421,0.0421 -0.124494,-0.0266 -0.177734,0 -0.0474,0.0237 -0.511446,0.48775 -0.535156,0.53516 -0.0266,0.0532 0,0.11821 0,0.17773 -0.0595,0.0595 -0.142048,0.1044 -0.179688,0.17969 -0.0266,0.0532 0.0421,0.13565 0,0.17773 -0.0421,0.0421 -0.135644,-0.0421 -0.177734,0 -0.0421,0.0421 0.0266,0.12645 0,0.17969 -0.0377,0.0753 -0.142038,0.10245 -0.179688,0.17774 -0.0266,0.0532 0.0266,0.12644 0,0.17968 -0.37158,0.74317 0.01202,-0.19173 -0.357422,0.17774 -0.0421,0.0421 0.0421,0.13564 0,0.17773 -0.0421,0.0421 -0.135644,-0.0421 -0.177734,0 -0.0421,0.0421 0.0421,0.1376 0,0.17969 -0.0421,0.0421 -0.135644,-0.0421 -0.177734,0 -0.0421,0.0421 0,0.11821 0,0.17773 l 0,1.42969 0,0.17774 c 0,0.0595 0.0421,0.13759 0,0.17968 -0.0421,0.0421 -0.120168,0 -0.179688,0 l -0.177734,0 c -0.12421,0 -0.827998,0.0323 -0.892578,0 -0.0753,-0.0376 -0.104398,-0.14204 -0.179688,-0.17968 -0.10648,-0.0532 -0.250942,0.0532 -0.357422,0 -0.0753,-0.0376 -0.102434,-0.1401 -0.177734,-0.17774 -0.0532,-0.0266 -0.126448,0.0266 -0.179688,0 -0.0753,-0.0377 -0.102444,-0.14204 -0.177734,-0.17969 -0.0532,-0.0266 -0.118214,0 -0.177734,0 -0.17983,0 -0.973516,0.0329 -1.072266,0 -0.0799,-0.0266 -0.102444,-0.14008 -0.177734,-0.17773 -0.0532,-0.0266 -0.120168,0 -0.179688,0 l -0.177734,0 c -0.0656,0 -0.707654,0.007 -0.714844,0 -0.0421,-0.0421 0.0421,-0.1376 0,-0.17969 -0.0421,-0.0421 -0.135644,0.0421 -0.177734,0 -0.0421,-0.0421 0.0421,-0.13564 0,-0.17773 -0.0489,-0.0489 -0.617964,0.0484 -0.714844,0 -0.0753,-0.0376 -0.104398,-0.14009 -0.179688,-0.17774 -0.12334,-0.0617 -0.829888,0.0627 -0.892578,0 -0.0421,-0.0421 0.0421,-0.13759 0,-0.17968 -0.0365,-0.0365 -0.464356,0.0354 -0.535156,0 -0.0753,-0.0376 -0.102444,-0.1401 -0.177734,-0.17774 -0.0244,-0.0122 -1.047876,-0.0122 -1.072266,0 -0.0753,0.0376 -0.102444,0.14009 -0.177734,0.17774 -0.10648,0.0532 -0.250942,-0.0532 -0.357422,0 -0.0753,0.0376 -0.104388,0.14203 -0.179688,0.17968 -0.0532,0.0266 -0.124494,-0.0266 -0.177734,0 -0.0753,0.0376 -0.104398,0.14009 -0.179688,0.17774 -0.0532,0.0266 -0.124494,-0.0266 -0.177734,0 -0.0753,0.0376 -0.102444,0.14009 -0.177734,0.17773 -0.0532,0.0266 -0.137598,-0.0421 -0.179688,0 -0.0421,0.0421 0.0421,0.1376 0,0.17969 -0.0421,0.0421 -0.135644,-0.0421 -0.177734,0 -0.0421,0.0421 0.0421,0.13565 0,0.17773 -0.0421,0.0421 -0.126448,-0.0266 -0.179688,0 -0.0753,0.0377 -0.102434,0.14204 -0.177734,0.17969 -0.0532,0.0266 -0.137598,-0.0421 -0.179688,0 -0.0421,0.0421 0.0421,0.13565 0,0.17774 -0.14851,0.14851 -0.206958,-0.14852 -0.355468,0 -0.0421,0.0421 0.0421,0.13759 0,0.17968 -0.11881,0.11881 -0.238612,-0.11881 -0.357422,0 -0.0421,0.0421 0.0421,0.13565 0,0.17774 -0.0842,0.0842 -0.273242,-0.0842 -0.357422,0 -0.0421,0.0421 0.0421,0.13564 0,0.17773 -0.0421,0.0421 -0.126448,-0.0266 -0.179688,0 -0.0753,0.0376 -0.102444,0.14205 -0.177734,0.17969 -0.0532,0.0266 -0.135644,-0.0421 -0.177734,0 -0.0421,0.0421 0.0421,0.13565 0,0.17773 -0.0421,0.0421 -0.137598,-0.0421 -0.179688,0 -0.0421,0.0421 0.0421,0.1376 0,0.17969 -0.0842,0.0842 -0.250942,-0.0532 -0.357422,0 -0.15058,0.0753 -0.206832,0.28213 -0.357422,0.35742 -0.19104,0.0955 -0.164428,-0.0955 -0.355468,0 -0.0753,0.0377 -0.104398,0.14009 -0.179688,0.17774 -0.0532,0.0266 -0.135644,-0.0421 -0.177734,0 -0.36947,0.36947 0.563492,-0.0141 -0.179688,0.35742 -0.10647,0.0532 -0.273242,-0.0842 -0.357422,0 -0.0421,0.0421 0.0421,0.13565 0,0.17773 -0.043,0.043 -0.66992,-0.043 -0.71289,0 -0.0421,0.0421 0.0421,0.1376 0,0.17969 -0.0421,0.0421 -0.120158,0 -0.179688,0 -0.1242,0 -0.827998,-0.0323 -0.892578,0 -0.0753,0.0376 -0.09356,0.17774 -0.177734,0.17774 -0.0595,0 0,-0.11822 0,-0.17774 l 0,-0.17969 0,-1.07031 c 0,-0.0804 0.0272,-0.48276 0,-0.53711 -0.0377,-0.0753 -0.142038,-0.10244 -0.179688,-0.17773 -0.0266,-0.0532 0.0266,-0.1245 0,-0.17774 -0.0377,-0.0753 -0.140084,-0.10439 -0.177734,-0.17968 -0.0266,-0.0532 0,-0.11822 0,-0.17774 l 0,-0.17969 0,-0.89257 c 0,-0.0433 -0.006,-0.52941 0,-0.53516 0.0421,-0.0421 0.135654,0.0421 0.177734,0 0.0421,-0.0421 0,-0.12016 0,-0.17969 l 0,-0.17773 0,-0.89258 0,-0.17969 c 0,-0.0595 -0.0266,-0.12449 0,-0.17773 0.0376,-0.0753 0.142038,-0.10245 0.179688,-0.17774 0.0617,-0.12335 -0.0627,-0.83185 0,-0.89453 0.0421,-0.0421 0.135644,0.0421 0.177734,0 0.0489,-0.0489 -0.0484,-0.61602 0,-0.71289 0.0376,-0.0753 0.142038,-0.10439 0.179688,-0.17969 0.0532,-0.10647 -0.0532,-0.25094 0,-0.35742 0.10714,-0.21428 0.428016,-0.32087 0.535156,-0.53515 0.0266,-0.0532 -0.0421,-0.13565 0,-0.17774 0.0421,-0.0421 0.124504,0.0266 0.177734,0 0.21429,-0.10715 0.32282,-0.42997 0.53711,-0.53711 0.0532,-0.0266 0.124494,0.0266 0.177734,0 0.15059,-0.0753 0.206842,-0.28018 0.357422,-0.35547 0.0532,-0.0266 0.135654,0.0421 0.177734,0 0.0421,-0.0421 0,-0.12016 0,-0.17968 0,-0.0595 -0.0266,-0.1245 0,-0.17774 0.0376,-0.0753 0.142038,-0.10439 0.179688,-0.17969 0.0266,-0.0532 0,-0.1182 0,-0.17773 0,-0.0595 0.0421,-0.1376 0,-0.17969 -0.0421,-0.0421 -0.137598,0.0421 -0.179688,0 -0.0365,-0.0365 0.0354,-0.46435 0,-0.53515 -0.0377,-0.0753 -0.140084,-0.10245 -0.177734,-0.17774 -0.0266,-0.0532 0.0266,-0.12645 0,-0.17969 -0.0376,-0.0753 -0.132988,-0.10769 -0.179688,-0.17773 -0.6014,-0.9021 -1.64e-4,-0.003 -0.177734,-0.53516 -0.43116,-1.29347 0.05122,0.28015 -0.357422,-0.53711 -0.0266,-0.0532 0.0266,-0.12449 0,-0.17773 -0.0376,-0.0753 -0.140094,-0.1044 -0.177734,-0.17969 -0.0714,-0.14286 0.0714,-0.3923 0,-0.53515 -0.0377,-0.0753 -0.142038,-0.10245 -0.179688,-0.17774 -0.0272,-0.0543 0,-0.45669 0,-0.53711 l 0,-1.07031 0,-0.17969 c 0,-0.0595 -0.0266,-0.12449 0,-0.17773 0.0376,-0.0753 0.142038,-0.10245 0.179688,-0.17774 0.0266,-0.0532 0,-0.12016 0,-0.17968 l 0,-0.17774 0,-2.67969 0,-0.89257 c 0,-0.17857 -0.0565,-0.36575 0,-0.53516 0.0266,-0.0799 0.140084,-0.1044 0.177734,-0.17969 0.0266,-0.0532 0,-0.11821 0,-0.17773 0,-0.11905 -0.0376,-0.24448 0,-0.35742 0.0266,-0.0799 0.142038,-0.10245 0.179688,-0.17774 0.0532,-0.10648 -0.0532,-0.25094 0,-0.35742 0.0377,-0.0753 0.140084,-0.1044 0.177734,-0.17969 0.0561,-0.11223 -0.0561,-0.60066 0,-0.71289 0.0376,-0.0753 0.140094,-0.10439 0.177734,-0.17969 0.0231,-0.0462 0,-0.94374 0,-1.07031 0,-0.0595 -0.0266,-0.12645 0,-0.17969 0.0376,-0.0753 0.142048,-0.10243 0.179688,-0.17773 0.0266,-0.0532 -0.0266,-0.12645 0,-0.17969 0.0377,-0.0753 0.140094,-0.10244 0.177734,-0.17773 0.0532,-0.10648 -0.0532,-0.25094 0,-0.35742 0.0376,-0.0753 0.142038,-0.10245 0.179688,-0.17774 0.0532,-0.10648 -0.0532,-0.25094 0,-0.35742 0.0376,-0.0753 0.140084,-0.1044 0.177734,-0.17969 0.01,-0.0199 0.01,-0.87264 0,-0.89258 -0.0753,-0.15058 -0.282122,-0.20683 -0.357422,-0.35742 -0.0266,-0.0532 0.0266,-0.12449 0,-0.17773 -0.0377,-0.0753 -0.140084,-0.10245 -0.177734,-0.17774 -0.0266,-0.0532 0.0421,-0.13759 0,-0.17968 -0.0421,-0.0421 -0.137598,0.0421 -0.179688,0 -0.0842,-0.0842 0.0842,-0.27325 0,-0.35743 -0.0421,-0.0421 -0.135644,0.0421 -0.177734,0 -0.007,-0.007 0,-0.64731 0,-0.71289 0,-0.0433 -0.006,-0.53136 0,-0.53711 0.0421,-0.0421 0.135644,0.0421 0.177734,0 0.0842,-0.0842 -0.0532,-0.25094 0,-0.35742 0.0753,-0.15058 0.282132,-0.20489 0.357422,-0.35547 0.0266,-0.0532 -0.0266,-0.12644 0,-0.17968 0.0753,-0.15059 0.282132,-0.20684 0.357422,-0.35743 0.0266,-0.0532 0,-0.1182 0,-0.17773 0.0595,-0.0595 0.142038,-0.1044 0.179688,-0.17969 0.0266,-0.0532 -0.0421,-0.13564 0,-0.17773 0.0421,-0.0421 0.135644,0.0421 0.177734,0 0.043,-0.043 -0.043,-0.671873 0,-0.714843 0.0421,-0.0421 0.135644,0.0421 0.177734,0 0.0421,-0.0421 0,-0.118205 0,-0.177735 l 0,-0.179687 0,-1.070313 0,-0.357421 c 0,-0.0595 0.0188,-0.121265 0,-0.177735 -0.0421,-0.12627 -0.135644,-0.231162 -0.177734,-0.357422 -0.0377,-0.11294 0.0532,-0.250942 0,-0.357422 -0.0377,-0.0753 -0.140084,-0.104397 -0.177734,-0.179687 -0.0354,-0.0708 0.0365,-0.498656 0,-0.535156 -0.0421,-0.0421 -0.137598,0.0421 -0.179688,0 -0.0627,-0.0627 0.0617,-0.769229 0,-0.892578 -0.0376,-0.0753 -0.140094,-0.102445 -0.177734,-0.177735 -0.0266,-0.0532 0,-0.120167 0,-0.179687 l 0,-0.177735 0,-0.892578 0,-0.179687 c 0,-0.0595 0.0266,-0.124495 0,-0.177735 -0.0377,-0.0753 -0.142038,-0.104387 -0.179688,-0.179687 -0.0323,-0.0646 0,-0.768378 0,-0.892578 l 0,-1.070313 c 0,-0.11734 -0.0336,-0.436359 0,-0.537109 0.0421,-0.12626 0.137598,-0.231152 0.179688,-0.357422 0.0188,-0.0565 -0.0266,-0.124495 0,-0.177734 0.0376,-0.0753 0.140084,-0.102445 0.177734,-0.177735 0.0532,-0.10648 -0.0842,-0.273242 0,-0.357422 0.0421,-0.0421 0.137598,0.0421 0.179688,0 0.0842,-0.0842 -0.0842,-0.273242 0,-0.357422 0.0421,-0.0421 0.135644,0.0421 0.177734,0 0.0842,-0.0842 -0.0377,-0.244481 0,-0.357421 0.0421,-0.12627 0.145454,-0.228302 0.177734,-0.357422 0.0217,-0.087 -0.0472,-0.620414 0,-0.714844 0.0376,-0.0753 0.142048,-0.102445 0.179688,-0.177734 0.0714,-0.14286 -0.0714,-0.392307 0,-0.535157 0.0377,-0.0753 0.140094,-0.104387 0.177734,-0.179687 0.0266,-0.0532 0,-0.118205 0,-0.177735 0.0595,-0.0595 0.142038,-0.104397 0.179688,-0.179687 0.0266,-0.0532 -0.0421,-0.135645 0,-0.177734 0.0421,-0.0421 0.135644,0.0421 0.177734,0 0.0842,-0.0842 -0.0532,-0.250942 0,-0.357422 0.0376,-0.0753 0.142038,-0.102445 0.179688,-0.177735 0.0542,-0.10844 -0.0542,-0.963835 0,-1.072265 0.0377,-0.0753 0.140084,-0.102445 0.177734,-0.177735 0.0231,-0.0462 0,-0.945695 0,-1.072265 l 0,-1.607422 c 0,-0.0595 0.0421,-0.135645 0,-0.177735 -0.0421,-0.0421 -0.135644,0.0421 -0.177734,0 -0.0421,-0.0421 0.0266,-0.126447 0,-0.179687 -0.0753,-0.15058 -0.282132,-0.204889 -0.357422,-0.355469 -0.0266,-0.0532 0.0421,-0.137597 0,-0.179687 -0.0421,-0.0421 -0.137598,0.0421 -0.179688,0 -0.0842,-0.0842 0.0842,-0.273242 0,-0.357422 -0.0421,-0.0421 -0.135644,0.0421 -0.177734,0 -0.0842,-0.0842 0.0532,-0.250942 0,-0.357422 -0.0376,-0.0753 -0.142038,-0.102445 -0.179688,-0.177734 -0.0532,-0.10648 0.0842,-0.273242 0,-0.357422 -0.0421,-0.0421 -0.151114,0.0532 -0.177734,0 -0.0519,-0.1037 0.0526,-0.965053 0,-1.070313 -0.0377,-0.0753 -0.140084,-0.104397 -0.177734,-0.179687 -0.0266,-0.0532 0.0266,-0.124495 0,-0.177735 -0.0376,-0.0753 -0.142048,-0.104387 -0.179688,-0.179687 -0.0532,-0.10648 0.0842,-0.273242 0,-0.357422 -0.0421,-0.0421 -0.135654,0.0421 -0.177734,0 -0.0421,-0.0421 0.0266,-0.124495 0,-0.177734 -0.0753,-0.15058 -0.282122,-0.206842 -0.357422,-0.357422 -0.0266,-0.0532 0.0421,-0.135645 0,-0.177735 -0.0421,-0.0421 -0.126448,0.0266 -0.179688,0 -0.11374,-0.0569 -0.752258,-0.752268 -0.892578,-0.892578 -0.0595,-0.0595 -0.102434,-0.142047 -0.177734,-0.179687 -0.0532,-0.0266 -0.126448,0.0266 -0.179688,0 -0.0753,-0.0376 -0.102444,-0.140095 -0.177734,-0.177735 -0.0532,-0.0266 -0.124494,0.0266 -0.177734,0 -0.0753,-0.0377 -0.104398,-0.142037 -0.179688,-0.179687 -0.0532,-0.0266 -0.135654,0.0421 -0.177734,0 -0.0421,-0.0421 0.0266,-0.124495 0,-0.177735 -0.0377,-0.0753 -0.120158,-0.120157 -0.179688,-0.179687 -0.0595,-0.0595 -0.09786,-0.151115 -0.177734,-0.177734 -0.11294,-0.0377 -0.244482,0.0376 -0.357422,0 -0.0799,-0.0266 -0.118214,-0.118215 -0.177734,-0.177735 -0.0595,-0.0595 -0.142048,-0.104397 -0.179688,-0.179687 -0.0266,-0.0532 0.0421,-0.135645 0,-0.177735 -0.0421,-0.0421 -0.124494,0.0266 -0.177734,0 -0.59225,-0.59225 0.168078,0.08309 -0.357422,-0.179687 -0.0753,-0.0376 -0.104398,-0.140085 -0.179688,-0.177735 -0.10648,-0.0532 -0.271288,0.0842 -0.355468,0 -0.0421,-0.0421 0.0421,-0.137597 0,-0.179687 -0.007,-0.007 -0.649264,0 -0.714844,0 l -1.785156,0 c -0.0997,0 -0.812792,-0.0272 -0.894532,0 -0.0799,0.0266 -0.09786,0.153067 -0.177734,0.179687 -0.11294,0.0377 -0.238382,0 -0.357422,0 -0.0595,0 -0.124504,-0.0266 -0.177734,0 -0.0753,0.0377 -0.104388,0.140095 -0.179688,0.177735 -0.0708,0.0354 -0.498646,-0.0365 -0.535156,0 -0.0421,0.0421 0.0421,0.137597 0,0.179687 -0.0842,0.0842 -0.250942,-0.0532 -0.357422,0 -0.0753,0.0376 -0.102444,0.140085 -0.177734,0.177735 -0.0646,0.0323 -0.768378,0 -0.892578,0 -0.0595,0 -0.137598,-0.0421 -0.179688,0 -0.2381,0.23809 0.298456,0.179687 -0.177734,0.179687 -0.0433,0 -0.53137,-0.006 -0.53711,0 -0.0421,0.0421 0.0421,0.135645 0,0.177735 -0.0421,0.0421 -0.118214,0 -0.177734,0 -0.0842,0 -0.884478,-0.008 -0.892578,0 -0.0421,0.0421 0.0421,0.135644 0,0.177734 -0.006,0.006 -0.491846,0 -0.535156,0 -0.0934,0 -0.667884,-0.0235 -0.714844,0 -0.0753,0.0376 -0.104398,0.142047 -0.179688,0.179687 -0.0532,0.0266 -0.177734,0.0595 -0.177734,0 0,-0.0595 0.177734,0.0595 0.177734,0 0,-0.0842 -0.140084,-0.104397 -0.177734,-0.179687 0,-0.47619 0.06034,0.06033 -0.177734,-0.177734 -0.0421,-0.0421 0.0421,-0.135645 0,-0.177735 -0.0842,-0.0842 -0.250952,0.0532 -0.357422,0 -0.0753,-0.0376 -0.09981,-0.153067 -0.179688,-0.179687 -0.11293,-0.0376 -0.244482,0.0376 -0.357422,0 -0.1355,-0.0452 -0.54878,-0.632784 -0.71289,-0.714844 -0.0532,-0.0266 -0.126448,0.0266 -0.179688,0 -0.15058,-0.0753 -0.217342,-0.262079 -0.357422,-0.355469 -0.11074,-0.0738 -0.244728,-0.105857 -0.355468,-0.179687 -0.07,-0.0467 -0.109648,-0.131045 -0.179688,-0.177735 -0.22149,-0.14766 -0.476744,-0.238372 -0.714844,-0.357422 -0.23809,-0.11904 -0.46036,-0.273241 -0.71289,-0.357421 -0.0565,-0.0188 -0.126448,0.0266 -0.179688,0 -0.0753,-0.0377 -0.102444,-0.140095 -0.177734,-0.177735 -0.10648,-0.0532 -0.273242,0.0842 -0.357422,0 -0.0421,-0.0421 0.0421,-0.137597 0,-0.179687 -0.0421,-0.0421 -0.135644,0.0421 -0.177734,0 -0.0421,-0.0421 0.0421,-0.135645 0,-0.177735 -0.0842,-0.0842 -0.273252,0.0842 -0.357422,0 -0.36948,-0.36948 0.563492,0.01413 -0.179688,-0.357422 -0.0532,-0.0266 -0.124494,0.0266 -0.177734,0 -0.0753,-0.0376 -0.104398,-0.142037 -0.179688,-0.179687 -0.0532,-0.0266 -0.124494,0.0266 -0.177734,0 -0.0753,-0.0376 -0.102444,-0.140085 -0.177734,-0.177734 -0.0532,-0.0266 -0.137598,0.0421 -0.179688,0 -0.0421,-0.0421 0,-0.118215 0,-0.177735 0,-0.12421 0.0323,-0.829951 0,-0.894531 -0.0376,-0.0753 -0.140094,-0.102445 -0.177734,-0.177734 -0.0532,-0.10648 0.0842,-0.273242 0,-0.357422 -0.0421,-0.0421 -0.137598,0.0421 -0.179688,0 -0.0842,-0.0842 0.0842,-0.273242 0,-0.357422 -0.0421,-0.0421 -0.135644,0.0421 -0.177734,0 -0.0421,-0.0421 0.0421,-0.135645 0,-0.177735 -0.0421,-0.0421 -0.137598,0.0421 -0.179688,0 -0.0421,-0.0421 0.0266,-0.126447 0,-0.179687 -0.0376,-0.0753 -0.140084,-0.102445 -0.177734,-0.177734 -0.0266,-0.0532 0.0421,-0.135645 0,-0.177735 -0.0421,-0.0421 -0.124494,0.0266 -0.177734,0 -0.74317,-0.37159 0.189782,0.01202 -0.179688,-0.357422 -0.0421,-0.0421 -0.135654,0.0421 -0.177734,0 -0.0421,-0.0421 0.0421,-0.137597 0,-0.179687 -0.0421,-0.0421 -0.126448,0.0266 -0.179688,0 C 50.320876,68.388954 50.21429,68.068078 50,67.960938 c -0.0532,-0.0266 -0.118214,0 -0.177734,0 -0.11905,-0.0595 -0.246682,-0.103905 -0.357422,-0.177735 -0.07,-0.0467 -0.09981,-0.153067 -0.179688,-0.179687 -0.11293,-0.0376 -0.258362,0.066 -0.357422,0 -0.11074,-0.0738 -0.08366,-0.263312 -0.177734,-0.357422 -0.0941,-0.0941 -0.246682,-0.103905 -0.357422,-0.177735 -0.07,-0.0467 -0.118214,-0.120157 -0.177734,-0.179687 L 47.5,66.175781 c -0.0595,-0.0595 -0.102444,-0.142047 -0.177734,-0.179687 -0.0532,-0.0266 -0.137598,0.0421 -0.179688,0 -0.0421,-0.0421 0.0421,-0.135645 0,-0.177735 -0.0421,-0.0421 -0.124504,0.0266 -0.177734,0 -0.0753,-0.0376 -0.104388,-0.142037 -0.179688,-0.179687 -0.0532,-0.0266 -0.135644,0.0421 -0.177734,0 -0.0421,-0.0421 0.0266,-0.124495 0,-0.177734 -0.0376,-0.0753 -0.142038,-0.102445 -0.179688,-0.177735 -0.0266,-0.0532 0.0421,-0.137597 0,-0.179687 -0.0421,-0.0421 -0.135644,0.0421 -0.177734,0 -0.0421,-0.0421 0.0266,-0.124495 0,-0.177735 -0.0377,-0.0753 -0.140084,-0.104387 -0.177734,-0.179687 -0.0266,-0.0532 0,-0.118205 0,-0.177735 -0.0595,-0.0595 -0.142048,-0.104397 -0.179688,-0.179687 -0.0532,-0.10648 0.0532,-0.248989 0,-0.355469 -0.0376,-0.0753 -0.140094,-0.104397 -0.177734,-0.179687 -0.0532,-0.10648 0.0532,-0.250942 0,-0.357422 -0.0377,-0.0753 -0.120158,-0.118205 -0.179688,-0.177735 0,-0.11904 0.0376,-0.244481 0,-0.357421 -0.0266,-0.0799 -0.151114,-0.09786 -0.177734,-0.177735 -0.0376,-0.11294 0.0377,-0.244492 0,-0.357422 -0.0266,-0.0799 -0.120168,-0.120157 -0.179688,-0.179687 C 45.118234,62.127054 45.03228,62.017802 45,61.888672 c -0.0433,-0.17324 0.0565,-0.365756 0,-0.535156 -0.0421,-0.12627 -0.135644,-0.231162 -0.177734,-0.357422 -0.0188,-0.0565 0,-0.118205 0,-0.177735 l 0,-0.357421 0,-1.072266 0,-0.177734 c 0,-0.0595 0.0266,-0.124495 0,-0.177735 -0.0376,-0.0753 -0.142048,-0.104397 -0.179688,-0.179687 -0.0272,-0.0543 0,-0.454737 0,-0.535157 0,-0.0934 -0.0235,-0.667893 0,-0.714843 0.0376,-0.0753 0.142038,-0.102445 0.179688,-0.177735 0.0266,-0.0532 0,-0.120167 0,-0.179687 l 0,-0.177735 c 0,-0.2067 -0.0399,-0.733158 0,-0.892578 0.0323,-0.12913 0.135644,-0.231152 0.177734,-0.357422 0.0345,-0.10344 0,-0.560093 0,-0.714843 0,-0.12421 0.0323,-0.827999 0,-0.892578 -0.0377,-0.0753 -0.140084,-0.102445 -0.177734,-0.177735 -0.0561,-0.11224 0.0561,-0.602604 0,-0.714844 -0.0376,-0.0753 -0.142048,-0.104397 -0.179688,-0.179687 -0.0235,-0.0469 0,-0.619511 0,-0.712891 l 0,-1.429687 c 0,-0.24199 0.0394,-1.13185 0,-1.25 -0.22066,-0.66199 -0.177734,0.217398 -0.177734,-0.357422 l 0,-0.177734 c 0,-0.0595 0.0266,-0.124495 0,-0.177735 -0.0377,-0.0753 -0.142038,-0.104397 -0.179688,-0.179687 -0.0561,-0.11224 0.0561,-0.602604 0,-0.714844 -0.0377,-0.0753 -0.140084,-0.102445 -0.177734,-0.177734 -0.0266,-0.0532 0.0266,-0.124495 0,-0.177735 -0.0753,-0.15059 -0.304182,-0.197712 -0.357422,-0.357422 0,-0.81291 0.08504,-0.01159 -0.177734,-0.537109 -0.0532,-0.10648 0.0842,-0.271289 0,-0.355469 -0.0421,-0.0421 -0.137598,0.0421 -0.179688,0 -0.0421,-0.0421 0.0266,-0.126447 0,-0.179687 -0.0376,-0.0753 -0.140094,-0.102445 -0.177734,-0.177735 -0.0484,-0.0969 0.0489,-0.665984 0,-0.714843 -0.0421,-0.0421 -0.137598,0.0421 -0.179688,0 -0.0421,-0.0421 0,-0.118215 0,-0.177735 l 0,-0.894531 c 0,-0.0595 -0.0421,-0.135645 0,-0.177734 0.0421,-0.0421 0.137598,0.0421 0.179688,0 0.0893,-0.0893 -0.0893,-0.445877 0,-0.535157 0.0421,-0.0421 0.135644,0.0421 0.177734,0 0.0421,-0.0421 -0.0421,-0.137607 0,-0.179687 0.0421,-0.0421 0.137598,0.0421 0.179688,0 0.0421,-0.0421 -0.0266,-0.124495 0,-0.177735 0.0377,-0.0753 0.140084,-0.104397 0.177734,-0.179687 0.0266,-0.0532 -0.0266,-0.124495 0,-0.177734 0.0376,-0.0753 0.140084,-0.102445 0.177734,-0.177735 0.0532,-0.10648 -0.0532,-0.250942 0,-0.357422 0.0376,-0.0753 0.142048,-0.104397 0.179688,-0.179687 0.0266,-0.0532 -0.0266,-0.124495 0,-0.177735 0.0377,-0.0753 0.140094,-0.104397 0.177734,-0.179687 0.0266,-0.0532 -0.0266,-0.124495 0,-0.177734 0.0376,-0.0753 0.142038,-0.102445 0.179688,-0.177735 0.0266,-0.0532 -0.0266,-0.126447 0,-0.179687 0.0376,-0.0753 0.140084,-0.102445 0.177734,-0.177735 0.0266,-0.0532 -0.0266,-0.126457 0,-0.179687 0.0376,-0.0753 0.142038,-0.102435 0.179688,-0.177735 0.0532,-0.10648 -0.0842,-0.273241 0,-0.357421 0.0421,-0.0421 0.135644,0.0421 0.177734,0 0.0842,-0.0842 -0.0842,-0.273242 0,-0.357422 0.0421,-0.0421 0.135644,0.0421 0.177734,0 0.0421,-0.0421 -0.0266,-0.124495 0,-0.177735 0.0376,-0.0753 0.142048,-0.104397 0.179688,-0.179687 0.0266,-0.0532 -0.0266,-0.124495 0,-0.177735 0.0753,-0.15058 0.282122,-0.206831 0.357422,-0.357421 0.0266,-0.0532 -0.0266,-0.124495 0,-0.177735 0.0376,-0.0753 0.140084,-0.104397 0.177734,-0.179687 0.0266,-0.0532 -0.0421,-0.135645 0,-0.177735 0,-0.0842 0.120168,-0.120167 0.179688,-0.179687 0.0595,-0.0595 0.107694,-0.131035 0.177734,-0.177735 0.11075,-0.0738 0.246682,-0.105857 0.357422,-0.179687 0.07,-0.0467 0.118214,-0.118215 0.177734,-0.177734 0.0595,-0.0595 0.142038,-0.102445 0.179688,-0.177735 0.0714,-0.14286 -0.0714,-0.394259 0,-0.537109 0.10714,-0.21429 0.428016,-0.320866 0.535156,-0.535156 0.0266,-0.0532 -0.0421,-0.135645 0,-0.177735 0.0842,-0.0842 0.273242,0.0842 0.357422,0 0.0421,-0.0421 -0.0421,-0.137597 0,-0.179687 0.0421,-0.0421 0.135654,0.0421 0.177734,0 0.0421,-0.0421 -0.0266,-0.124495 0,-0.177735 0.0376,-0.0753 0.142038,-0.104397 0.179688,-0.179687 0.0323,-0.0646 0,-0.768378 0,-0.892578 l 0,-1.25 c 0,-0.0804 0.0272,-0.480807 0,-0.535157 -0.0377,-0.0753 -0.153068,-0.09982 -0.179688,-0.179687 -0.0339,-0.10158 0,-0.724398 0,-0.892578 0,-0.0934 -0.0235,-0.665941 0,-0.712891 0.0376,-0.0753 0.142038,-0.104397 0.179688,-0.179687 0.0527,-0.10536 -0.0409,-0.412327 0,-0.535157 0.0421,-0.12627 0.135644,-0.231151 0.177734,-0.357421 0.0188,-0.0565 -0.0266,-0.124495 0,-0.177735 0.0753,-0.15059 0.282132,-0.206842 0.357422,-0.357422 0.0266,-0.0532 -0.0266,-0.126457 0,-0.179687 0.0376,-0.0753 0.118214,-0.118205 0.177734,-0.177735 l 0.179688,-0.179687 0.177734,-0.177734 c 0.0595,-0.0595 0.142038,-0.102445 0.179688,-0.177735 0.0266,-0.0532 -0.0421,-0.137597 0,-0.179687 0.0421,-0.0421 0.135644,0.0421 0.177734,0 0.36947,-0.36947 -0.563482,0.01412 0.179688,-0.357422 0.0532,-0.0266 0.124494,0.0266 0.177734,0 0.0753,-0.0377 0.102444,-0.140085 0.177734,-0.177735 0.0532,-0.0266 0.126448,0.0266 0.179688,0 0.0753,-0.0376 0.102444,-0.142037 0.177734,-0.179687 0.0708,-0.0354 0.5006,0.0365 0.53711,0 0.0421,-0.0421 -0.0421,-0.135645 0,-0.177734 0.0842,-0.0842 0.248988,0.0532 0.355468,0 0.0753,-0.0377 0.104398,-0.140095 0.179688,-0.177735 0.11266,-0.0563 0.779918,0.0563 0.892578,0 0.0753,-0.0376 0.102444,-0.142047 0.177734,-0.179687 0.10648,-0.0532 0.273252,0.0842 0.357422,0 0.0421,-0.0421 -0.0421,-0.135645 0,-0.177735 0.0421,-0.0421 0.126448,0.0266 0.179688,0 0.0753,-0.0377 0.102444,-0.142037 0.177734,-0.179687 0.0532,-0.0266 0.137598,0.0421 0.179688,0 0.0421,-0.0421 -0.0421,-0.135645 0,-0.177735 0.0842,-0.0842 0.271288,0.0842 0.355468,0 0.0421,-0.0421 -0.0421,-0.137597 0,-0.179687 0.0421,-0.0421 0.137598,0.0421 0.179688,0 0.0421,-0.0421 -0.0421,-0.135645 0,-0.177734 0.0842,-0.0842 0.273242,0.0842 0.357422,0 0.0421,-0.0421 -0.0421,-0.135645 0,-0.177735 0.0893,-0.0893 0.445866,0.0893 0.535156,0 0.0421,-0.0421 -0.0421,-0.137597 0,-0.179687 0.0421,-0.0421 0.135644,0.0421 0.177734,0 0.0421,-0.0421 -0.0421,-0.135645 0,-0.177735 0.0489,-0.0489 0.617964,0.0484 0.714844,0 0.0753,-0.0377 0.104398,-0.142037 0.179688,-0.179687 0.0531,-0.0266 0.995192,0 1.070312,0 0.0595,0 0.126448,0.0266 0.179688,0 0.0753,-0.0376 0.09786,-0.151115 0.177734,-0.177735 0.0339,-0.0113 1.20262,-0.0237 1.25,0 0.0753,0.0377 0.102444,0.140095 0.177734,0.177735 0.0543,0.0272 0.45669,0 0.53711,0 l 1.25,0 2.857422,0 c 0.0656,0 0.70571,0.007 0.71289,0 0.0421,-0.0421 -0.0421,-0.135645 0,-0.177735 0.0893,-0.0893 0.44782,0.0893 0.53711,0 0.0421,-0.0421 -0.0421,-0.137597 0,-0.179687 0.0842,-0.0842 0.248988,0.0532 0.355468,0 0.0753,-0.0376 0.104398,-0.140085 0.179688,-0.177734 0.047,-0.0235 0.621464,0 0.714844,0 l 1.785156,0 1.427734,0 c 0.0804,0 0.48276,-0.0272 0.53711,0 0.0753,0.0376 0.102444,0.140094 0.177734,0.177734 0.0543,0.0272 0.454736,0 0.535156,0 l 1.429688,0 c 0.15118,0 0.61689,-0.032 0.71289,0 0.0799,0.0266 0.104398,0.142047 0.179688,0.179687 0.0532,0.0266 0.124504,-0.0266 0.177734,0 0.0753,0.0377 0.104388,0.140095 0.179688,0.177735 0.10648,0.0532 0.250942,-0.0532 0.357422,0 0.0753,0.0376 0.09786,0.153067 0.177734,0.179687 0.11294,0.0376 0.238382,0 0.357422,0 0.0595,0 0.124504,-0.0266 0.177734,0 0.0753,0.0376 0.104388,0.140085 0.179688,0.177735 0.10648,0.0532 0.250942,-0.0532 0.357422,0 0.0753,0.0376 0.102444,0.142037 0.177734,0.179687 0.0532,0.0266 0.135644,-0.0421 0.177734,0 0.0421,0.0421 -0.0421,0.135645 0,0.177735 0.0842,0.0842 0.273252,-0.0842 0.357422,0 0.0421,0.0421 -0.0421,0.135644 0,0.177734 0.0421,0.0421 0.137598,-0.0421 0.179688,0 0.0421,0.0421 -0.0421,0.137597 0,0.179687 0.0421,0.0421 0.135644,-0.0421 0.177734,0 0.0421,0.0421 -0.0421,0.135645 0,0.177735 0.0421,0.0421 0.137598,-0.0421 0.179688,0 0.0421,0.0421 -0.0421,0.137597 0,0.179687 0.36947,0.36947 -0.01607,-0.565435 0.355468,0.177735 0.0266,0.0532 -0.0266,0.126447 0,0.179687 0.0376,0.0753 0.142048,0.102445 0.179688,0.177735 0.0266,0.0532 -0.0266,0.124494 0,0.177734 0.0377,0.0753 0.140094,0.104397 0.177734,0.179687 0.0266,0.0532 -0.0266,0.124485 0,0.177735 0.0376,0.0753 0.142038,0.104387 0.179688,0.179687 0.0266,0.0532 -0.0421,0.135645 0,0.177735 0.0421,0.0421 0.135644,-0.0421 0.177734,0 0.0421,0.0421 -0.0421,0.137597 0,0.179687 0.0421,0.0421 0.137598,-0.0421 0.179688,0 0.0842,0.0842 -0.0842,0.271289 0,0.355469 0.0421,0.0421 0.135644,-0.0421 0.177734,0 0.0421,0.0421 -0.0421,0.137597 0,0.179687 0.0421,0.0421 0.135644,-0.0421 0.177734,0 0.0842,0.0842 -0.0842,0.273242 0,0.357422 0.0421,0.0421 0.137598,-0.0421 0.179688,0 0.0421,0.0421 -0.0421,0.135645 0,0.177735 0.0421,0.0421 0.135654,-0.0421 0.177734,0 0.0421,0.0421 -0.0421,0.137597 0,0.179687 0.0842,0.0842 0.273242,-0.0842 0.357422,0 0.0421,0.0421 -0.0421,0.135645 0,0.177735 0.1194,0.119399 0.238022,-0.1194 0.357422,0 0.0421,0.0421 -0.0421,0.135644 0,0.177734 0.0421,0.0421 0.124494,-0.0266 0.177734,0 0.0753,0.0376 0.104398,0.142047 0.179688,0.179687 0.0532,0.0266 0.118214,0 0.177734,0 l 0.179688,0 1.070312,0 c 0.0595,0 0.179688,-0.0595 0.179688,0 l 0.535156,0 c 0.1889,0 1.15801,0.0307 1.25,0 0.0799,-0.0266 0.102444,-0.142037 0.177734,-0.179687 0.0532,-0.0266 0.120168,0 0.179688,0 l 0.177734,0 1.072266,0 0.177734,0 c 0.0595,0 0.137598,-0.0421 0.179688,0 0.0421,0.0421 -0.0421,0.137597 0,0.179687 0.0421,0.0421 0.118204,0 0.177734,0 0.0656,0 0.707664,0.007 0.714844,0 0.0421,-0.0421 -0.0421,-0.137597 0,-0.179687 0.0365,-0.0365 0.464356,0.0354 0.535156,0 0.0753,-0.0376 0.104398,-0.140085 0.179688,-0.177734 0.0462,-0.0231 0.943742,0 1.070312,0 0.0595,0 0.137598,0.0421 0.179688,0 0.0421,-0.0421 0,-0.118215 0,-0.177735 l 0,-0.179687 c 0,-0.47619 0.05838,0.06034 -0.179688,-0.177735 -0.0421,-0.0421 0.0266,-0.126457 0,-0.179687 -0.10715,-0.21429 -0.428006,-0.320866 -0.535156,-0.535156 -0.0266,-0.0532 0.0266,-0.124495 0,-0.177735 -0.0753,-0.15059 -0.282132,-0.206842 -0.357422,-0.357422 -0.0266,-0.0532 0.0421,-0.137607 0,-0.179687 -0.23809,-0.2381 -0.177734,0.298455 -0.177734,-0.177735 0,-0.47619 0.05838,0.05838 -0.179688,-0.179687 -0.0421,-0.0421 0.0266,-0.124495 0,-0.177734 -0.0376,-0.0753 -0.140094,-0.102445 -0.177734,-0.177735 -0.0532,-0.10648 0.0532,-0.250942 0,-0.357422 -0.0377,-0.0753 -0.142038,-0.104387 -0.179688,-0.179687 -0.0266,-0.0532 0,-0.118205 0,-0.177735 l 0,-0.892578 0,-0.179687 c 0,-0.0595 0.0266,-0.124495 0,-0.177735 -0.0377,-0.0753 -0.140084,-0.104397 -0.177734,-0.179687 -0.0532,-0.10648 0.0532,-0.248989 0,-0.355469 -0.0376,-0.0753 -0.142038,-0.104397 -0.179688,-0.179687 -0.0266,-0.0532 0.0266,-0.124495 0,-0.177735 -0.0376,-0.0753 -0.140084,-0.104397 -0.177734,-0.179687 -0.0266,-0.0532 0.0421,-0.135645 0,-0.177735 -0.0421,-0.0421 -0.135644,0.0421 -0.177734,0 -0.1194,-0.1194 0.1194,-0.238021 0,-0.357421 -0.0421,-0.0421 -0.126448,0.0266 -0.179688,0 -0.0753,-0.0377 -0.118214,-0.118215 -0.177734,-0.177735 -0.0595,-0.0595 -0.142038,-0.104397 -0.179688,-0.179687 -0.0266,-0.0532 0.0266,-0.124495 0,-0.177735 -0.0377,-0.0753 -0.118204,-0.120167 -0.177734,-0.179687 -0.0595,-0.0595 -0.142038,-0.102435 -0.179688,-0.177735 -0.0266,-0.0532 0.0421,-0.137597 0,-0.179687 -0.0421,-0.0421 -0.135644,0.0421 -0.177734,0 -0.0421,-0.0421 0.0266,-0.124495 0,-0.177734 -0.0377,-0.0753 -0.140094,-0.102445 -0.177734,-0.177735 -0.0266,-0.0532 0.0421,-0.137597 0,-0.179687 -0.0421,-0.0421 -0.126448,0.0266 -0.179688,0 -0.21429,-0.10714 -0.320866,-0.428007 -0.535156,-0.535157 -0.0532,-0.0266 -0.137598,0.0421 -0.179688,0 -0.0421,-0.0421 0.0421,-0.137597 0,-0.179687 -0.0421,-0.0421 -0.135644,0.0421 -0.177734,0 -0.0421,-0.0421 0.0421,-0.135645 0,-0.177734 -0.0421,-0.0421 -0.135644,0.0421 -0.177734,0 -0.0421,-0.0421 0.0421,-0.135645 0,-0.177735 -0.1194,-0.1194 -0.238022,0.1194 -0.357422,0 -0.0421,-0.0421 0.0421,-0.137597 0,-0.179687 -0.0421,-0.0421 -0.126448,0.0266 -0.179688,0 -0.0753,-0.0376 -0.118204,-0.118215 -0.177734,-0.177735 -0.0595,-0.0595 -0.104398,-0.142047 -0.179688,-0.179687 -0.0532,-0.0266 -0.135644,0.0421 -0.177734,0 -0.0421,-0.0421 0.0421,-0.135645 0,-0.177735 -0.0421,-0.0421 -0.135644,0.0421 -0.177734,0 -0.0421,-0.0421 0.0421,-0.137597 0,-0.179687 -0.47619,0 0.05838,0.06034 -0.179688,-0.177734 -0.0421,-0.0421 -0.135654,0.0421 -0.177734,0 -0.0421,-0.0421 0.0421,-0.135645 0,-0.177735 -0.0421,-0.0421 -0.137598,0.0421 -0.179688,0 -0.0842,-0.0842 0.0842,-0.273252 0,-0.357422 -0.0421,-0.0421 -0.135644,0.0421 -0.177734,0 -0.0421,-0.0421 0.0266,-0.126447 0,-0.179687 -0.0376,-0.0753 -0.142038,-0.102435 -0.179688,-0.177735 -0.0266,-0.0532 0.0266,-0.126447 0,-0.179687 -0.37158,-0.74317 0.01397,0.191735 -0.355468,-0.177734 -0.0421,-0.0421 0.0266,-0.124495 0,-0.177735 -0.0376,-0.0753 -0.120168,-0.120167 -0.179688,-0.179687 l -0.177734,-0.177735 c -0.40944,-0.40944 0.11154,0.07503 -0.53711,-0.357422 -0.07,-0.0467 -0.102444,-0.142037 -0.177734,-0.179687 -0.0532,-0.0266 -0.135644,0.0421 -0.177734,0 -0.11905,0 0,-0.236419 0,-0.355469 l 0,0.177735 c 0,0.05952 -0.0421,0.135634 0,0.177734 0.1331,0 0.08366,-0.261359 0.177734,-0.355469 0.0421,-0.0421 0.124494,0.0266 0.177734,0 0.15059,-0.0753 0.206842,-0.282132 0.357422,-0.357422 0.0532,-0.0266 0.137598,0.0421 0.179688,0 0.0421,-0.0421 -0.0421,-0.137597 0,-0.179687 0.0421,-0.0421 0.135644,0.0421 0.177734,0 0.0421,-0.0421 -0.0421,-0.135645 0,-0.177735 0.0421,-0.0421 0.137598,0.0421 0.179688,0 0.0421,-0.0421 -0.0266,-0.126447 0,-0.179687 0.0377,-0.0753 0.131044,-0.107694 0.177734,-0.177734 0.21978,-0.329671 0.315376,-0.742596 0.535156,-1.072266 0.0467,-0.07 0.142038,-0.102445 0.179688,-0.177734 0.0532,-0.10648 -0.0842,-0.273242 0,-0.357422 0.0421,-0.0421 0.135644,0.0421 0.177734,0 0.0421,-0.0421 0,-0.118215 0,-0.177735 l 0,-0.179687 c 0,-0.0433 0.006,-0.529416 0,-0.535156 -0.0421,-0.0421 -0.135654,0.0421 -0.177734,0 -0.0421,-0.0421 0.0421,-0.135645 0,-0.177735 -0.0421,-0.0421 -0.126448,0.0266 -0.179688,0 -0.38209,-0.19105 0.02462,-0.166382 -0.357422,-0.357422 -0.0532,-0.0266 -0.121264,0.0188 -0.177734,0 -0.32433,-0.10811 -0.330846,-0.153102 -0.535156,-0.357422 -0.59225,-0.59224 0.168078,0.08308 -0.357422,-0.179687 -0.74317,-0.37158 0.189782,0.01397 -0.179688,-0.355469 -0.0421,-0.0421 -0.124494,0.0266 -0.177734,0 -0.0474,-0.0237 -0.511456,-0.489689 -0.535156,-0.537109 -0.0266,-0.0532 0.0266,-0.124495 0,-0.177735 -0.0377,-0.0753 -0.142038,-0.104397 -0.179688,-0.179687 -0.0532,-0.10648 0.0532,-0.248989 0,-0.355469 -0.0753,-0.15059 -0.282132,-0.206842 -0.357422,-0.357422 -0.0266,-0.0532 0.0421,-0.137597 0,-0.179687 -0.0421,-0.0421 -0.121264,0.0188 -0.177734,0 -0.12627,-0.0421 -0.246682,-0.103905 -0.357422,-0.177735 -0.14009,-0.0934 -0.206832,-0.282132 -0.357422,-0.357421 -0.0532,-0.0266 -0.124494,0.0266 -0.177734,0 -0.0753,-0.0377 -0.104398,-0.140095 -0.179688,-0.177735 -0.0532,-0.0266 -0.118214,0 -0.177734,0 l -0.177734,0 -1.072266,0 c -0.0595,0 -0.135644,-0.0421 -0.177734,0 -0.0421,0.0421 0.0421,0.135645 0,0.177735 -0.0421,0.0421 -0.126448,-0.0266 -0.179688,0 -0.44133,0.22066 0.06133,0.177734 -0.357422,0.177734 l -1.607422,0 -0.177734,0 c -0.0595,0 -0.135644,-0.0421 -0.177734,0 -0.006,0.006 0,0.493799 0,0.537109 0,0.0842 -0.008,0.884488 0,0.892578 0.0421,0.0421 0.135644,-0.0421 0.177734,0 0.0421,0.0421 -0.0266,0.124495 0,0.177735 0.0753,0.15059 0.282132,0.206832 0.357422,0.357422 0.0266,0.0532 -0.0421,0.137597 0,0.179687 0.0421,0.0421 0.135644,-0.0421 0.177734,0 0.0421,0.0421 -0.0421,0.135645 0,0.177735 0.2381,0.238099 0.179688,-0.298456 0.179688,0.177734 l 0,0.179687 c 0,0.0595 -0.0266,0.124495 0,0.177735 0.0232,0.0465 0.317324,0.217822 0.177734,0.357422 -0.0421,0.0421 -0.118214,0 -0.177734,0 l -0.892578,0 -0.179688,0 c -0.0595,0 -0.135654,0.0421 -0.177734,0 -0.0421,-0.0421 0.0421,-0.135645 0,-0.177735 0,0.0842 -0.142038,0.102435 -0.179688,0.177735 -0.0266,0.0532 0.0421,0.137597 0,0.179687 -0.0421,0.0421 -0.135644,-0.0421 -0.177734,0 -0.0421,0.0421 0.0421,0.135645 0,0.177735 -0.0421,0.0421 -0.126448,-0.0266 -0.179688,0 -0.0753,0.0376 -0.102444,0.140094 -0.177734,0.177734 -0.10648,0.0532 -0.250942,-0.0532 -0.357422,0 -0.0753,0.0376 -0.102444,0.142047 -0.177734,0.179687 -0.0532,0.0266 -0.126448,-0.0266 -0.179688,0 -0.0753,0.0377 -0.102444,0.140095 -0.177734,0.177735 -0.14285,0.0714 -0.392296,-0.0714 -0.535156,0 -0.0753,0.0376 -0.104398,0.142037 -0.179688,0.179687 -0.10648,0.0532 -0.250942,-0.0532 -0.357422,0 -0.0753,0.0376 -0.102444,0.140085 -0.177734,0.177735 -0.0532,0.0266 -0.126448,-0.0266 -0.179688,0 -0.0753,0.0376 -0.102444,0.142037 -0.177734,0.179687 -0.10648,0.0532 -0.250942,-0.0532 -0.357422,0 -0.15059,0.0753 -0.206832,0.280179 -0.357422,0.355469 -0.0532,0.0266 -0.124494,-0.0266 -0.177734,0 -0.0753,0.0376 -0.104398,0.142047 -0.179688,0.179687 -0.0532,0.0266 -0.124494,-0.0266 -0.177734,0 -0.74317,0.37159 0.191736,-0.01203 -0.177734,0.357422 -0.0421,0.0421 -0.137598,-0.0421 -0.179688,0 -0.0421,0.0421 0.0421,0.135645 0,0.177735 -0.0842,0.0842 -0.250942,-0.0532 -0.357422,0 -0.0753,0.0376 -0.118204,0.120157 -0.177734,0.179687 -0.11905,0 -0.244482,-0.0376 -0.357422,0 -0.15972,0.0532 -0.206842,0.280179 -0.357422,0.355469 -0.0469,0.0235 -0.621464,0 -0.714844,0 -0.0934,0 -0.66594,0.0235 -0.71289,0 -0.0753,-0.0376 -0.104388,-0.140085 -0.179688,-0.177734 -0.0532,-0.0266 -0.135644,0.0421 -0.177734,0 -0.0421,-0.0421 0.0421,-0.135645 0,-0.177735 -0.0842,-0.0842 -0.250942,0.0532 -0.357422,0 -0.0753,-0.0376 -0.102444,-0.142047 -0.177734,-0.179687 -0.0532,-0.0266 -0.137598,0.0421 -0.179688,0 -0.0421,-0.0421 0.0421,-0.135645 0,-0.177735 -0.36947,-0.36948 0.01413,0.563493 -0.357422,-0.179687 -0.0532,-0.10648 0.0842,-0.273242 0,-0.357422 -0.0421,-0.0421 -0.135644,0.0421 -0.177734,0 -0.0421,-0.0421 0,-0.118215 0,-0.177734 -0.0595,0 -0.137598,0.0421 -0.179688,0 -0.0842,-0.0842 0.0842,-0.273242 0,-0.357422 -0.0421,-0.0421 -0.135644,0.0421 -0.177734,0 -0.0421,-0.0421 0.0266,-0.124495 0,-0.177735 -0.0377,-0.0753 -0.140094,-0.104387 -0.177734,-0.179687 -0.0266,-0.0532 0.0266,-0.124495 0,-0.177735 -0.0753,-0.15058 -0.282132,-0.206842 -0.357422,-0.357421 -0.0266,-0.0532 0.0421,-0.135645 0,-0.177735 -0.0421,-0.0421 -0.137598,0.0421 -0.179688,0 -0.0421,-0.0421 0.0266,-0.126447 0,-0.179687 -0.59224,-0.59225 0.08504,0.168088 -0.177734,-0.357422 -0.0376,-0.0753 -0.142038,-0.102435 -0.179688,-0.177735 -0.0532,-0.10648 0.0532,-0.250941 0,-0.357421 -0.0376,-0.0753 -0.140084,-0.102445 -0.177734,-0.177735 -0.0266,-0.0532 0.0421,-0.137597 0,-0.179687 -0.0421,-0.0421 -0.135644,0.0421 -0.177734,0 -0.0421,-0.0421 0.0421,-0.135645 0,-0.177735 -0.0421,-0.0421 -0.137598,0.0421 -0.179688,0 -0.0421,-0.0421 0.0421,-0.137597 0,-0.179687 -0.0842,-0.0842 -0.273242,0.0842 -0.357422,0 -0.0421,-0.0421 0.0421,-0.135645 0,-0.177735 -0.0421,-0.0421 -0.135644,0.0421 -0.177734,0 -0.0421,-0.0421 0.0421,-0.137597 0,-0.179687 -0.0842,-0.0842 -0.273242,0.0842 -0.357422,0 -0.0421,-0.0421 0.0421,-0.135645 0,-0.177734 -0.0842,-0.0842 -0.273242,0.0842 -0.357422,0 -0.0421,-0.0421 0.0421,-0.135645 0,-0.177735 -0.008,-0.008 -0.808378,0 -0.892578,0 l -0.535156,0 c -0.0595,0 -0.179688,-0.0595 -0.179688,0 0,0.0842 0.120158,0.118215 0.179688,0.177735 0.22528,0.225289 0.46411,0.528253 0.71289,0.714843 0.10648,0.0799 0.263312,0.08366 0.357422,0.177735 0.0941,0.0941 0.08561,0.263301 0.179688,0.357422 0.43243,0.21622 0.262466,0.08478 0.535156,0.357421 l 0.177734,0.177735 c 0.0595,0.0595 0.142048,0.104387 0.179688,0.179687 0.0266,0.0532 -0.0421,0.135645 0,0.177735 0.36947,0.36947 -0.01413,-0.563483 0.357422,0.179687 0.0266,0.0532 -0.0421,0.135645 0,0.177735 0.0421,0.0421 0.124494,-0.0266 0.177734,0 0.0474,0.0237 0.511446,0.487746 0.535156,0.535156 0.0266,0.0532 -0.0421,0.137597 0,0.179687 0.0421,0.0421 0.137598,-0.0421 0.179688,0 0.0421,0.0421 -0.0266,0.124495 0,0.177735 0.0377,0.0753 0.140094,0.104397 0.177734,0.179687 0.0266,0.0532 -0.0266,0.124495 0,0.177735 0.0376,0.0753 0.142038,0.102444 0.179688,0.177734 0.0266,0.0532 -0.0266,0.126447 0,0.179687 0.0376,0.0753 0.140084,0.102445 0.177734,0.177735 0.0714,0.14286 -0.0714,0.394249 0,0.537109 0.0376,0.0753 0.142038,0.102445 0.179688,0.177735 0.0266,0.0532 -0.0266,0.124494 0,0.177734 0.0377,0.0753 0.140084,0.104397 0.177734,0.179687 0.0266,0.0532 0,0.118215 0,0.177735 l 0,0.179687 0,0.892578 0,0.892579 c 0,0.0595 0.0421,0.135644 0,0.177734 -0.0421,0.0421 -0.135644,-0.0421 -0.177734,0 -0.0421,0.0421 0.0421,0.137597 0,0.179687 -0.0842,0.0842 -0.273252,-0.0842 -0.357422,0 -0.0421,0.0421 0.0421,0.135645 0,0.177735 -0.0421,0.0421 -0.137598,-0.0421 -0.179688,0 -0.0421,0.0421 0.0421,0.137597 0,0.179687 -0.0421,0.0421 -0.124494,-0.0266 -0.177734,0 -0.59224,0.59224 0.168078,-0.08504 -0.357422,0.177735 -0.21429,0.10714 -0.320876,0.428016 -0.535156,0.535156 -0.14286,0.0714 -0.39425,-0.0714 -0.53711,0 -0.0753,0.0376 -0.102444,0.142047 -0.177734,0.179687 -0.0366,0.0183 -0.509976,0.0252 -0.535156,0 -0.0365,-0.0365 0.0354,-0.464356 0,-0.535156 -0.0377,-0.0753 -0.142038,-0.104397 -0.179688,-0.179687 -0.0272,-0.0543 0,-0.454737 0,-0.535157 0,-0.0595 -0.0421,-0.137597 0,-0.179687 0.0421,-0.0421 0.137598,0.0421 0.179688,0 0.0421,-0.0421 0,-0.118215 0,-0.177734 0,-0.0804 0.0272,-0.480817 0,-0.535157 -0.0377,-0.0753 -0.142038,-0.104387 -0.179688,-0.179687 -0.0266,-0.0532 0.0421,-0.135645 0,-0.177735 -0.0842,-0.0842 -0.273242,0.0842 -0.357422,0 0,0.08418 -0.177734,-0.09549 -0.177734,-0.179687 0,-0.03359 0.04244,-0.03924 0.08789,-0.0332 -0.03329,-0.04688 -0.07052,-0.09243 -0.08789,-0.144531 -0.0188,-0.0565 0.0421,-0.135645 0,-0.177735 -0.0421,-0.0421 -0.135644,0.0421 -0.177734,0 -0.0421,-0.0421 0.0421,-0.137597 0,-0.179687 -0.0421,-0.0421 -0.126448,0.0266 -0.179688,0 -0.15059,-0.0753 -0.206832,-0.282122 -0.357422,-0.357422 -0.0532,-0.0266 -0.124494,0.0266 -0.177734,0 -0.15827,-0.0791 -0.372606,-0.426787 -0.535156,-0.535156 -0.22149,-0.14766 -0.493354,-0.209762 -0.714844,-0.357422 -0.40862,-0.27242 0.112214,-0.141622 -0.535156,-0.357422 -0.0565,-0.0188 -0.126448,0.0266 -0.179688,0 -0.15059,-0.0753 -0.206832,-0.282132 -0.357422,-0.357422 -0.0532,-0.0266 -0.135644,0.0421 -0.177734,0 -0.0421,-0.0421 0.0421,-0.135645 0,-0.177734 -0.0421,-0.0421 -0.137598,0.0421 -0.179688,0 -0.0421,-0.0421 0.0421,-0.135645 0,-0.177735 -0.0421,-0.0421 -0.135644,0.0421 -0.177734,0 -0.0421,-0.0421 0.0421,-0.137597 0,-0.179687 -0.0421,-0.0421 -0.135644,0.0421 -0.177734,0 -0.0421,-0.0421 0.0421,-0.135645 0,-0.177735 -0.0421,-0.0421 -0.126448,0.0266 -0.179688,0 -0.0753,-0.0377 -0.102444,-0.142037 -0.177734,-0.179687 -0.0532,-0.0266 -0.137598,0.0421 -0.179688,0 -0.0421,-0.0421 0.0421,-0.135645 0,-0.177735 -0.0421,-0.0421 -0.124494,0.0266 -0.177734,0 -0.59224,-0.59224 0.168078,0.08308 -0.357422,-0.179687 -0.0753,-0.0376 -0.107694,-0.131045 -0.177734,-0.177734 -0.11075,-0.0738 -0.238382,-0.118215 -0.357422,-0.177735 L 52.5,13.675781 c -0.11905,-0.0595 -0.250942,-0.09982 -0.357422,-0.179687 -0.13469,-0.10102 -0.222732,-0.256402 -0.357422,-0.357422 -0.86487,-0.64865 0.01105,0.190711 -0.535156,-0.355469 -0.0349,-0.0349 -0.226052,-0.311067 -0.357422,-0.179687 -0.0421,0.0421 0,0.120157 0,0.179687 l 0,0.177735 0,2.5 0,2.677734 0,0.714844 0,0.179687 c 0,0.0595 0.0266,0.124495 0,0.177735 -0.0376,0.0753 -0.140094,0.102444 -0.177734,0.177734 -0.0354,0.0708 0.0365,0.500599 0,0.537109 -0.0421,0.0421 -0.137598,-0.0421 -0.179688,0 -0.0365,0.0365 0.0354,0.464356 0,0.535157 -0.0377,0.0753 -0.140084,0.102444 -0.177734,0.177734 -0.0532,0.10648 0.0842,0.273242 0,0.357422 -0.0421,0.0421 -0.137598,-0.0421 -0.179688,0 -0.0842,0.0842 0.0842,0.273242 0,0.357422 -0.0421,0.0421 -0.135644,-0.0421 -0.177734,0 -0.0421,0.0421 0.0266,0.126447 0,0.179687 -0.10714,0.21429 -0.428016,0.320876 -0.535156,0.535156 -0.0266,0.0532 0.0266,0.124485 0,0.177735 -0.0753,0.15058 -0.282122,0.206832 -0.357422,0.357422 -0.0563,0.11265 0.0563,0.779918 0,0.892578 -0.0376,0.0753 -0.142038,0.104387 -0.179688,0.179687 -0.0561,0.11223 0.0561,0.600661 0,0.712891 -0.0376,0.0753 -0.140084,0.104397 -0.177734,0.179687 -0.0323,0.0646 0,0.768379 0,0.892579 0,0.0595 0.0421,0.135644 0,0.177734 -0.0421,0.0421 -0.135644,-0.0421 -0.177734,0 -0.043,0.043 0.043,0.671874 0,0.714844 -0.0421,0.0421 -0.137598,-0.0421 -0.179688,0 -0.0842,0.0842 0.0842,0.273241 0,0.357422 -0.0421,0.0421 -0.135654,-0.0421 -0.177734,0 -0.0421,0.0421 0.0421,0.135644 0,0.177734 -0.0842,0.0842 -0.273242,-0.0842 -0.357422,0 -0.0421,0.0421 0.0421,0.137597 0,0.179687 -0.0421,0.0421 -0.137598,0.0421 -0.179688,0 -0.23809,-0.23809 0.298456,-0.179687 -0.177734,-0.179687 -0.0433,0 -0.529416,0.006 -0.535156,0 -0.0421,-0.0421 0.0421,-0.135645 0,-0.177734 -0.0365,-0.0365 -0.46631,0.0354 -0.53711,0 -0.0753,-0.0377 -0.102444,-0.140095 -0.177734,-0.177735 -0.0462,-0.0231 -0.945696,0 -1.072266,0 l -0.177734,0 c -0.0595,0 -0.135644,0.0421 -0.177734,0 -0.0421,-0.0421 0.0421,-0.137597 0,-0.179687 -0.05953,-0.05953 -0.101005,-0.06985 -0.128907,-0.06055 0,0 -0.002,0.002 -0.002,0.002 -0.0023,0.03363 -0.01285,0.05859 -0.04883,0.05859 -0.22778,0 -0.177734,-0.580154 -0.177734,-0.714844 0,-0.45503 -0.208572,-0.237456 -0.357422,-0.535156 -0.0354,-0.0708 0.0365,-0.498647 0,-0.535157 -0.0421,-0.0421 -0.137598,0.0421 -0.179688,0 -0.0893,-0.0893 0.0893,-0.445866 0,-0.535156 -0.0421,-0.0421 -0.135644,0.0421 -0.177734,0 -0.006,-0.006 0,-0.493809 0,-0.537109 l 0,-1.607422 c 0,-0.0934 0.0235,-0.665941 0,-0.712891 -0.0753,-0.15059 -0.282132,-0.206832 -0.357422,-0.357422 -0.0323,-0.0646 0,-0.768378 0,-0.892578 0,-0.0595 0.0421,-0.137607 0,-0.179687 -0.0421,-0.0421 -0.135654,0.0421 -0.177734,0 -0.11941,-0.11941 0.1194,-0.238022 0,-0.357422 -0.0421,-0.0421 -0.137598,0.0421 -0.179688,0 -0.0842,-0.0842 0.0842,-0.271289 0,-0.355469 -0.0421,-0.0421 -0.135644,0.0421 -0.177734,0 -0.0421,-0.0421 0.0421,-0.137597 0,-0.179687 -0.0421,-0.0421 -0.137598,0.0421 -0.179688,0 -0.0893,-0.0893 0.0893,-0.445867 0,-0.535157 -0.0421,-0.0421 -0.135644,0.0421 -0.177734,0 -0.0421,-0.0421 0.0421,-0.137597 0,-0.179687 -0.0421,-0.0421 -0.135644,0.0421 -0.177734,0 -0.0842,-0.0842 0.0842,-0.271289 0,-0.355469 -0.0421,-0.0421 -0.137598,0.0421 -0.179688,0 -0.0365,-0.0365 0.0354,-0.466309 0,-0.537109 -0.0951,-0.1901 -0.262372,-0.167322 -0.357422,-0.357422 -0.0266,-0.0532 0.0266,-0.124495 0,-0.177734 -0.0377,-0.0753 -0.140084,-0.102445 -0.177734,-0.177735 -0.0266,-0.0532 0.0421,-0.137597 0,-0.179687 -0.0421,-0.0421 -0.137598,0.0421 -0.179688,0 -0.0842,-0.0842 0.0532,-0.250952 0,-0.357422 -0.0376,-0.0753 -0.140084,-0.102435 -0.177734,-0.177735 -0.0354,-0.0708 0.0365,-0.498656 0,-0.535156 -0.0421,-0.0421 -0.135644,0.0421 -0.177734,0 -0.0421,-0.0421 0,-0.120167 0,-0.179687 l 0,-0.892578 c 0,-0.0595 -0.0421,-0.135645 0,-0.177735 0.0421,-0.0421 0.135644,0.0421 0.177734,0 0.0421,-0.0421 -0.0421,-0.137597 0,-0.179687 0.0421,-0.0421 0.124494,0.0266 0.177734,0 0.0753,-0.0376 0.120168,-0.118215 0.179688,-0.177735 0.0595,-0.0595 0.140094,-0.104397 0.177734,-0.179687 0.0266,-0.0532 -0.0421,-0.135645 0,-0.177735 0.0421,-0.0421 0.137598,0.0421 0.179688,0 0.0421,-0.0421 0,-0.120157 0,-0.179687 0.0595,0 0.135644,0.0421 0.177734,0 0.23809,-0.23809 -0.296502,-0.177734 0.179688,-0.177734 l 0.177734,0 c 0,-0.0576 0.307812,-0.258202 0.357422,-0.357422 0.0272,-0.0543 0,-0.454737 0,-0.535157 l 0,-1.25 0,-0.8925778 0,-0.1796874 c 0,-0.0595 0.0266,-0.1244944 0,-0.1777344 -0.0376,-0.0753 -0.142038,-0.1043975 -0.179688,-0.1796875 -0.0266,-0.0532 0.0266,-0.1244944 0,-0.1777344 -0.0753,-0.15058 -0.280178,-0.2068419 -0.355468,-0.3574219 -0.0266,-0.0532 0.0421,-0.1356444 0,-0.1777344 -0.0421,-0.0421 -0.126448,0.0266 -0.179688,0 -0.0474,-0.0237 -0.511446,-0.4896993 -0.535156,-0.5371093 -0.0266,-0.0532 0.0421,-0.1356444 0,-0.1777344 -0.0421,-0.0421 -0.126448,0.0266 -0.179688,0 -0.21428,-0.10714 -0.320876,-0.4280162 -0.535156,-0.5351563 -0.0532,-0.0266 -0.135654,0.0421 -0.177734,0 -0.0421,-0.0421 0.0421,-0.1375974 0,-0.1796874 -0.0421,-0.0421 -0.137598,0.0421 -0.179688,0 -0.0421,-0.0421 0.0266,-0.1244944 0,-0.1777344 -0.0753,-0.15058 -0.282132,-0.2068319 -0.357422,-0.3574219 -0.0272,-0.0543 0,-0.4547362 0,-0.5351563 0,-0.0595 -0.0421,-0.1375974 0,-0.1796874 0.0421,-0.0421 0.137598,0.0421 0.179688,0 0.0893,-0.0893 -0.0893,-0.4458663 0,-0.5351563 0.0421,-0.0421 0.135654,0.0421 0.177734,0 0.0489,-0.0489 -0.0484,-0.6179638 0,-0.7148437 0.0753,-0.15058 0.282132,-0.2068319 0.357422,-0.3574219 0.0266,-0.0532 -0.0421,-0.1356444 0,-0.1777344 0.0842,-0.0842 0.273242,0.0842 0.357422,0 0.0421,-0.0421 -0.0421,-0.1356444 0,-0.1777344 0.0421,-0.0421 0.118214,0 0.177734,0 l 0.179688,0 1.427734,0 c 0.0433,0 0.53137,0.006 0.53711,0 0.0421,-0.0421 -0.0421,-0.1375975 0,-0.1796875 0.008,-0.008 0.808378,0 0.892578,0 l 0.892578,0 c 0.0595,0 0.135654,0.0421 0.177734,0 0.0421,-0.0421 -0.0421,-0.1356444 0,-0.1777344 0.0842,-0.0842 0.273242,0.0842 0.357422,0 0.0421,-0.0421 -0.0421,-0.1375974 0,-0.1796874 0.0893,-0.0893 0.445876,0.0893 0.535156,0 0.0421,-0.0421 -0.0421,-0.1356444 0,-0.1777344 0.0842,-0.0842 0.273242,0.0842 0.357422,0 0.0421,-0.0421 -0.0421,-0.1375975 0,-0.1796875 0.0421,-0.0421 0.137598,0.0421 0.179688,0 0.0421,-0.0421 -0.0421,-0.1356444 0,-0.1777344 0.0421,-0.0421 0.135644,0.0421 0.177734,0 0.0421,-0.0421 -0.0421,-0.1356444 0,-0.1777344 0.0421,-0.0421 0.126448,0.0266 0.179688,0 0.15058,-0.0753 0.204888,-0.2821319 0.355468,-0.3574219 0.0532,-0.0266 0.120168,0 0.179688,0 0.0595,-0.0595 0.102444,-0.1420375 0.177734,-0.1796874 0.10648,-0.0532 0.250942,0.0532 0.357422,0 0.0753,-0.0376 0.104398,-0.1400844 0.179688,-0.1777344 0.14286,-0.0714 0.392306,0.0714 0.535156,0 0.0753,-0.0376 0.102444,-0.1420375 0.177734,-0.1796875 0.0646,-0.0323 0.768378,0 0.892578,0 0.0433,0 0.53136,0.006 0.53711,0 0.0421,-0.0421 -0.0266,-0.1244944 0,-0.1777344 0.37158,-0.74317 -0.01202,0.1917356 0.357422,-0.1777344 0.0421,-0.0421 -0.0421,-0.1375975 0,-0.1796875 0.0421,-0.0421 0.135644,0.0421 0.177734,0 0.0421,-0.0421 0,-0.1182144 0,-0.1777344 0.0595,0 0.135644,0.0421 0.177734,0 0.0842,-0.0842 -0.0532,-0.25094183 0,-0.35742182 0.0753,-0.15058 0.282132,-0.20684188 0.357422,-0.35742188 0.0266,-0.0532 -0.0421,-0.13564438 0,-0.17773438 0.0421,-0.0421 0.137598,0.0421 0.179688,0 0.0421,-0.0421 -0.0266,-0.1264475 0,-0.1796875 0.0376,-0.07529999 0.140084,-0.10244437 0.177734,-0.17773437 0.0266,-0.0532 -0.0266,-0.1264475 0,-0.1796875 0.0376,-0.0753 0.142038,-0.10243438 0.179688,-0.17773437 0.0953,-0.19057 -0.0953,-0.16685188 0,-0.35742188 0.0753,-0.15058 0.280178,-0.20684188 0.355468,-0.3574219 0.0532,-0.10648 -0.0532,-0.2509419 0,-0.3574218 0.0376,-0.0753 0.142048,-0.1024344 0.179688,-0.1777344 0.0272,-0.0543 0,-0.4547363 0,-0.5351563 l 0,-1.25 0,-0.1796875 c 0,-0.0595 -0.0421,-0.1356444 0,-0.1777344 0.0421,-0.0421 0.135654,0.0421 0.177734,0 0.007,-0.007 0,-0.6492637 0,-0.7148437 0,-0.0842 -0.008,-0.8844781 0,-0.8925781 0.03615,-0.036151 0.107256,0.00983 0.154297,0 A 85.35714,85.35714 0 0 0 28.710938,-9.8164062 Z M 42.5,12.960938 c 0,0.0595 0.177734,0.0595 0.177734,0 0,-0.0595 -0.118234,0 -0.177734,0 z m 2.142578,13.392578 c 0.0072,-0.02154 0.02277,-0.04828 0.04883,-0.05859 0.0054,-0.07766 -0.04883,-0.215763 -0.04883,-0.298828 l 0,0.179687 c 0,0.238095 -0.01488,0.222378 0,0.177735 z m 14.195313,-8.248047 c 0.04739,0.06674 0.08984,0.134705 0.08984,0.21289 -0.0421,-0.0421 0.0421,-0.137597 0,-0.179687 -0.01833,-0.01833 -0.05478,-0.02855 -0.08984,-0.0332 z m 13.126953,-4.429688 c 0,-0.0595 -0.179688,-0.0595 -0.179688,0 0,0.0595 0.137588,-0.0421 0.179688,0 z m 8.75,17.142578 -0.179688,0 c -0.05952,0 0.179688,0.0595 0.179688,0 z m -34.822266,7.857422 c 0,0.0595 0.179688,0.0595 0.179688,0 0,-0.0595 -0.137588,-0.0421 -0.179688,0 z m -91.613281,52.490235 c 10e-4,0.157364 0.0059,0.162512 0.0059,0.367187 -0.0532,-0.10648 0.0532,-0.250942 0,-0.357422 -0.0012,-0.0024 -0.0046,-0.0073 -0.0059,-0.0098 z m 28.578125,-80.347657 c 0.01977,0.0641 0.03628,0.126866 0.04297,0.185547 0.02079,-0.113069 0.02515,-0.219604 -0.04297,-0.185547 z m -1.201172,1.382813 c -0.0128,0.01951 -0.02123,0.03206 -0.0332,0.05078 0.05229,0.0037 0.09895,6.66e-4 0.146484,0.0039 0.0024,-0.005 0.01563,-0.0036 0.01563,-0.0098 0,-0.05829 -0.05668,-0.05887 -0.128906,-0.04492 z m 0.128906,0.04492 c -0.0031,0.0031 -0.0015,0.0083 -0.0039,0.01172 0.08493,0.0056 0.19144,0.0167 0.263672,0.0078 -0.09003,-0.01469 -0.200389,-0.07891 -0.259766,-0.01953 z m 0.259766,0.01953 c 0.03764,0.0061 0.07284,0.0053 0.09766,-0.01953 0.0054,-0.0054 0.0041,-0.01346 0.0078,-0.01953 -0.03468,0.01172 -0.06805,0.03446 -0.105469,0.03906 z m 0.105469,-0.03906 c 0.127972,-0.04323 0.244324,-0.127319 0.349609,-0.33789 0.0532,-0.10648 0,-0.236419 0,-0.355469 -0.07529,0.15058 -0.282122,0.204889 -0.357422,0.355469 -0.04977,0.09962 0.06147,0.24975 0.0078,0.33789 z M -17.5,11.533203 c 0.11905,-0.11905 0.282132,-0.206842 0.357422,-0.357422 -0.08418,0.0842 -0.273222,-0.0842 -0.357422,0 -0.0842,0.08418 0.0532,0.250942 0,0.357422 z m -0.71875,0.724609 c -0.0038,-2.46e-4 -0.0079,-0.0017 -0.01172,-0.002 -0.01788,0.03646 -0.08696,0.04497 -0.167969,0.03711 -0.07918,0.127105 -0.153119,0.248421 -0.173828,0.310547 -0.0376,0.11294 0.273242,0.0842 0.357422,0 0.08109,-0.08109 -0.06766,-0.257469 -0.0039,-0.345704 z M 8.5722656,-3.4667969 c -0.027931,0.027931 -0.022839,0.07629 -0.00977,0.1289063 0.023879,-0.091054 0.048967,-0.1680985 0.00977,-0.1289063 z M 8.5625,-3.3378906 c -0.02741,0.104518 -0.053857,0.2265625 0.00977,0.2265625 0.079559,0 0.016571,-0.1205631 -0.00977,-0.2265625 z m -0.7050781,0.9414062 c -0.02758,0.02758 -0.022439,0.077051 -0.00977,0.1289063 0.02385,-0.09092 0.048925,-0.1680562 0.00977,-0.1289063 z m -0.00977,0.1289063 c -0.027433,0.1045757 -0.053912,0.2285156 0.00977,0.2285156 0.080054,0 0.016251,-0.1220605 -0.00977,-0.2285156 z m 1.7949219,3.4433593 c 0.046196,0.046196 0.146893,0.00663 0.2304688,-0.019531 -0.077252,0.00799 -0.154515,0.019531 -0.2304688,0.019531 z M 11.42773,1.5332031 c 0.195875,0 0.213695,0.00628 0.341797,0.00977 0.0025,-0.00501 0.01563,-0.00348 0.01563,-0.00977 0,-0.11905 -0.238372,0 -0.357422,0 z M -17.896484,20.052734 c 0.02418,0.0056 0.03906,0.02102 0.03906,0.05078 0,0.11904 -0.238372,0 -0.357422,0 0.08929,0 0.245814,-0.06752 0.31836,-0.05078 z m -14.576172,29.769532 c 0.05162,0.112509 0.07023,0.28125 -0.02734,0.28125 -0.08453,0 0.0074,-0.176832 0.02734,-0.28125 z M 110.35938,60.380859 c -0.14386,0.08419 -0.0757,0.08125 0.0137,0.08984 a 85.35714,85.35714 0 0 0 -0.0137,-0.08984 z"
       transform="translate(339.74657,-502.04975)"
       id="path4137"
       inkscape:connector-curvature="0" />
  </g>
</svg>
